<?xml version="1.0" encoding="UTF-8"?>
<svg version="1.1" xmlns="http://www.w3.org/2000/svg" width="1024" height="256">
<path d="M0 0 C1.03874268 0.57379395 2.07748535 1.14758789 3.14770508 1.73876953 C4.28788086 2.36138672 5.42805664 2.98400391 6.6027832 3.62548828 C7.79102351 4.29069344 8.97917366 4.95605967 10.16723633 5.62158203 C11.36649036 6.28025647 12.56635538 6.93781979 13.7668457 7.59423828 C22.26344676 12.26905565 22.26344676 12.26905565 25.97973633 14.74658203 C26.66723633 17.55908203 26.66723633 17.55908203 25.97973633 20.74658203 C24.55810547 21.9362793 24.55810547 21.9362793 22.63989258 23.06298828 C21.91455322 23.491521 21.18921387 23.92005371 20.44189453 24.36157227 C14.92021729 27.46761837 9.34571022 30.47065917 3.76098633 33.46142578 C2.81739258 33.97060547 1.87379883 34.47978516 0.90161133 35.00439453 C0.05179688 35.45959473 -0.79801758 35.91479492 -1.67358398 36.38378906 C-3.93289169 37.69584229 -5.9670882 39.13472674 -8.02026367 40.74658203 C-7.45218994 41.06820312 -6.88411621 41.38982422 -6.29882812 41.72119141 C-0.75261485 44.86514815 4.77915679 48.03318512 10.30297852 51.21630859 C12.61377027 52.5373632 14.93668902 53.8309399 17.26879883 55.11376953 C18.44382047 55.78208749 19.61834849 56.45127457 20.79223633 57.12158203 C21.80930664 57.68619141 22.82637695 58.25080078 23.87426758 58.83251953 C25.97973633 60.74658203 25.97973633 60.74658203 26.72583008 63.69970703 C25.97973633 66.74658203 25.97973633 66.74658203 23.24536133 68.95751953 C21.91932484 69.70161151 20.57920097 70.42087468 19.22973633 71.12158203 C17.66180073 71.98835855 16.09411013 72.85557835 14.52661133 73.72314453 C13.64811523 74.19913086 12.76961914 74.67511719 11.86450195 75.16552734 C6.95592256 77.85577448 2.12041396 80.67340419 -2.72973633 83.46716309 C-13.38278778 89.59186876 -24.1013276 95.59789422 -34.83520508 101.57958984 C-43.21721413 106.26471857 -51.51998585 111.07884585 -59.79272461 115.95410156 C-62.52869237 117.56312718 -65.27367083 119.15577746 -68.02026367 120.74658203 C-68.98609375 121.32021484 -69.95192383 121.89384766 -70.94702148 122.48486328 C-71.90189453 123.03529297 -72.85676758 123.58572266 -73.84057617 124.15283203 C-74.69151855 124.65105469 -75.54246094 125.14927734 -76.41918945 125.66259766 C-80.54401236 127.3815965 -83.60328258 127.31714087 -87.73901367 125.65185547 C-89.11573242 124.88663574 -89.11573242 124.88663574 -90.52026367 124.10595703 C-91.56029541 123.53635254 -92.60032715 122.96674805 -93.671875 122.37988281 C-94.77684326 121.75839355 -95.88181152 121.1369043 -97.02026367 120.49658203 C-98.18976251 119.85067853 -99.35993916 119.2060009 -100.53076172 118.5625 C-102.90754977 117.25408316 -105.28058543 115.93923508 -107.65063477 114.61865234 C-111.4970107 112.4817149 -115.36148738 110.37997428 -119.22998047 108.28344727 C-132.9139841 100.8606358 -146.53110723 93.31386952 -160.15356445 85.77886963 C-162.03074793 84.74078422 -163.90828232 83.70333593 -165.78588867 82.66601562 C-168.84687505 80.97466256 -171.90671182 79.28124653 -174.96572876 77.58633423 C-176.64826387 76.65453348 -178.33168435 75.72433199 -180.01513672 74.79418945 C-183.0244749 73.12477728 -186.02502961 71.44115362 -189.02026367 69.74658203 C-190.44653076 68.94462402 -190.44653076 68.94462402 -191.90161133 68.12646484 C-192.79283691 67.61180664 -193.6840625 67.09714844 -194.60229492 66.56689453 C-195.38451416 66.11846191 -196.1667334 65.6700293 -196.97265625 65.20800781 C-199.41628322 63.46393353 -200.63735457 62.4433635 -202.02026367 59.74658203 C-202.42598545 56.54981126 -202.36871121 53.3861905 -202.31323242 50.16845703 C-202.30898758 49.24188293 -202.30474274 48.31530884 -202.30036926 47.36065674 C-202.2835969 44.40566769 -202.24594722 41.45136442 -202.20776367 38.49658203 C-202.19271497 36.49138356 -202.17902689 34.48617438 -202.16674805 32.48095703 C-202.13369805 27.56923507 -202.08192549 22.65802477 -202.02026367 17.74658203 C-197.31042419 17.44548455 -194.62220595 18.12079678 -190.54760742 20.46533203 C-188.97184937 21.35768555 -188.97184937 21.35768555 -187.36425781 22.26806641 C-186.24011475 22.92097656 -185.11597168 23.57388672 -183.95776367 24.24658203 C-182.77163252 24.92311534 -181.58468547 25.59821996 -180.39697266 26.27197266 C-178.53266699 27.33002792 -176.6690909 28.38922714 -174.80818176 29.45324707 C-170.2999488 32.03046873 -165.76719534 34.55934544 -161.21557617 37.05908203 C-160.57477615 37.41103638 -159.93397614 37.76299072 -159.27375793 38.12561035 C-157.37707903 39.16651747 -155.47998684 40.2066673 -153.58276367 41.24658203 C-145.84475971 45.48847857 -138.15529813 49.79163284 -130.55908203 54.28369141 C-125.23663315 57.63768057 -125.23663315 57.63768057 -119.25854492 58.51220703 C-116.1092503 57.4349614 -113.17382468 55.99190593 -110.20776367 54.49658203 C-109.51473145 54.14869629 -108.82169922 53.80081055 -108.10766602 53.44238281 C-101.01947652 49.83106848 -94.12275609 45.89329813 -87.21630859 41.94873047 C-79.87702935 37.76645792 -72.47024041 33.72791249 -65.02026367 29.74658203 C-56.67161077 25.28072122 -48.37782752 20.73561339 -40.14526367 16.05908203 C-39.21270752 15.53096924 -38.28015137 15.00285645 -37.31933594 14.45874023 C-33.60096476 12.3518695 -29.88391038 10.24319002 -26.17895508 8.11279297 C-23.4448181 6.54192761 -20.70220067 4.98686227 -17.95776367 3.43408203 C-17.14259277 2.95946533 -16.32742187 2.48484863 -15.48754883 1.99584961 C-14.72361816 1.5668335 -13.9596875 1.13781738 -13.17260742 0.69580078 C-12.51252686 0.31770264 -11.85244629 -0.06039551 -11.17236328 -0.44995117 C-7.08591571 -1.97558917 -3.99468535 -1.65780572 0 0 Z " fill="#FFFFFF" transform="translate(212.020263671875,92.25341796875)"/>
<path d="M0 0 C4.34886403 4.16947866 7.85267892 8.13727737 10.9765625 13.34375 C11.3065625 5.09375 11.6365625 -3.15625 11.9765625 -11.65625 C17.5865625 -11.65625 23.1965625 -11.65625 28.9765625 -11.65625 C29.0694032 7.39872515 29.14066578 26.4536358 29.18381119 45.50879097 C29.20438233 54.35766454 29.23239793 63.20639445 29.27832031 72.05517578 C29.31835579 79.77332947 29.34403484 87.49137905 29.35291648 95.20963371 C29.35810314 99.2913979 29.37017803 103.37286442 29.39948273 107.45453262 C29.42691699 111.30740732 29.43495193 115.15986572 29.42899323 119.01282883 C29.4300811 120.41634647 29.43786678 121.8198801 29.4533844 123.22331238 C29.64467276 141.43880603 24.31067586 156.62474319 11.6640625 169.8359375 C-2.55587381 183.10512226 -20.90870376 186.09604007 -39.71191406 185.47998047 C-56.65236704 184.48158875 -72.73455405 177.6842769 -84.43359375 165.26953125 C-90.01442678 158.50945587 -96.0234375 148.3895904 -96.0234375 139.34375 C-90.0834375 139.34375 -84.1434375 139.34375 -78.0234375 139.34375 C-77.0128125 141.344375 -76.0021875 143.345 -74.9609375 145.40625 C-68.85523383 156.85161243 -60.47826639 162.91515175 -48.10571289 166.97265625 C-36.17935566 170.26552451 -22.22476816 169.5759505 -11.0234375 164.34375 C0.05595002 158.01879037 5.33242376 150.37572107 9.21484375 138.43359375 C10.76326335 132.1525686 11.10022728 126.01261424 11.07421875 119.5625 C11.0728038 118.86354614 11.07138885 118.16459229 11.06993103 117.44445801 C11.0643992 115.24417571 11.05186027 113.04400077 11.0390625 110.84375 C11.03403866 109.33854315 11.02947732 107.83333468 11.02539062 106.328125 C11.01445227 102.66663265 10.99723609 99.00520183 10.9765625 95.34375 C10.59274414 95.94485596 10.20892578 96.54596191 9.81347656 97.1652832 C1.77831467 109.52390154 -9.33585478 117.90321971 -23.71875 121.6484375 C-41.60254209 125.03466641 -59.8133238 122.98266446 -75.28125 113.23828125 C-89.58175284 103.35830422 -97.8279142 89.28247084 -101.7734375 72.46875 C-105.58780448 51.54241623 -103.32286191 29.86716131 -91.3984375 11.89453125 C-81.3465944 -1.81041223 -67.20371482 -10.00895797 -50.6171875 -13.10546875 C-33.06422001 -15.10310124 -13.48447884 -12.2695833 0 0 Z M-71.0234375 15.34375 C-82.46098867 29.13173644 -86.53836291 44.45239623 -85.0234375 62.34375 C-83.17708162 75.70603692 -77.89440214 88.81321437 -67.0234375 97.34375 C-55.56844894 105.38701984 -42.89579192 108.97184368 -28.9453125 106.8828125 C-16.10119172 104.29572656 -6.23417635 98.66662099 1.9765625 88.34375 C10.88680894 74.61760764 13.52613534 59.44447711 10.9765625 43.34375 C7.86465689 29.067482 0.94512503 17.20049927 -11.26171875 8.953125 C-30.04961999 -1.99541151 -55.12923228 0.17610671 -71.0234375 15.34375 Z " fill="#FFFFFF" transform="translate(619.0234375,57.65625)"/>
<path d="M0 0 C3.47802969 0.90583707 5.9734319 2.20305194 9.03808594 4.07397461 C10.14490723 4.74154785 11.25172852 5.40912109 12.39208984 6.09692383 C12.96936829 6.45091248 13.54664673 6.80490112 14.14141846 7.1696167 C17.16585652 9.02385761 20.20870447 10.84749755 23.24902344 12.67553711 C24.14994217 13.2189978 24.14994217 13.2189978 25.06906128 13.7734375 C29.92197131 16.69445951 34.83414618 19.48634986 39.80371094 22.20288086 C47.6313418 26.4953952 55.32815444 30.98513535 63.00390625 35.54272461 C65.31435087 36.9080345 67.63229433 38.2598759 69.95214844 39.60913086 C70.73259521 40.06416992 71.51304199 40.51920898 72.31713867 40.98803711 C73.81795071 41.86267409 75.32001353 42.73516934 76.82348633 43.60522461 C81.95430695 46.60347687 81.95430695 46.60347687 84.17871094 48.82788086 C84.17871094 50.14788086 84.17871094 51.46788086 84.17871094 52.82788086 C82.60351563 54.22143555 82.60351563 54.22143555 80.35058594 55.49975586 C79.50230225 55.99096924 78.65401855 56.48218262 77.7800293 56.98828125 C76.83909424 57.51284912 75.89815918 58.03741699 74.92871094 58.57788086 C73.95232666 59.13789795 72.97594238 59.69791504 71.9699707 60.27490234 C69.84098828 61.49363258 67.70805953 62.70548808 65.57177734 63.91137695 C62.11318957 65.86488926 58.6658737 67.83744521 55.22167969 69.81616211 C48.21684082 73.83679111 41.19862375 77.83363349 34.17871094 81.82788086 C30.30281394 84.03464449 26.42799491 86.24328695 22.55371094 88.45288086 C21.74409912 88.91315674 20.9344873 89.37343262 20.1003418 89.84765625 C19.32956299 90.287146 18.55878418 90.72663574 17.76464844 91.17944336 C17.0140918 91.60386719 16.26353516 92.02829102 15.49023438 92.46557617 C13.85199907 93.43107606 12.24269908 94.44645316 10.65625 95.49487305 C5.14573999 99.08247747 1.77787546 100.905567 -4.82128906 99.82788086 C-7.67629854 98.73549156 -10.21000367 97.28307108 -12.82128906 95.70288086 C-13.9697229 95.03724121 -13.9697229 95.03724121 -15.14135742 94.3581543 C-17.71106115 92.86407519 -20.2657863 91.34610332 -22.82128906 89.82788086 C-25.67414292 88.15730436 -28.53015187 86.49220474 -31.38623047 84.82714844 C-33.39913557 83.65248928 -35.41051038 82.4752042 -37.42041016 81.29541016 C-44.87180121 76.92920405 -52.39411104 72.70427068 -59.94628906 68.51538086 C-66.80668608 64.69106769 -73.6594091 60.86633442 -80.32128906 56.70288086 C-81.38347656 56.04030273 -82.44566406 55.37772461 -83.54003906 54.69506836 C-86.0578833 52.63423009 -86.2407538 51.88679411 -86.82128906 48.82788086 C-80.34540545 44.10519901 -73.78358124 39.99773796 -66.69628906 36.26538086 C-58.70423903 31.98268374 -50.8224591 27.55290031 -43.00878906 22.95288086 C-33.32964031 17.25724876 -23.57108708 11.72300042 -13.75366211 6.26977539 C-12.26153198 5.44002197 -12.26153198 5.44002197 -10.73925781 4.59350586 C-9.86035889 4.1065625 -8.98145996 3.61961914 -8.07592773 3.11791992 C-2.37356887 -0.14480495 -2.37356887 -0.14480495 0 0 Z " fill="#FFFFFF" transform="translate(153.8212890625,4.172119140625)"/>
<path d="M0 0 C4.34886403 4.16947866 7.85267892 8.13727737 10.9765625 13.34375 C11.3065625 5.09375 11.6365625 -3.15625 11.9765625 -11.65625 C17.5865625 -11.65625 23.1965625 -11.65625 28.9765625 -11.65625 C28.9765625 32.23375 28.9765625 76.12375 28.9765625 121.34375 C23.3665625 121.34375 17.7565625 121.34375 11.9765625 121.34375 C11.4815625 108.47375 11.4815625 108.47375 10.9765625 95.34375 C8.9965625 98.31375 7.0165625 101.28375 4.9765625 104.34375 C-5.28723196 115.6084464 -18.61591133 121.94065566 -33.765625 122.7265625 C-53.43375694 123.29883349 -70.0263001 119.6586832 -84.859375 105.76953125 C-99.6067389 89.23864139 -104.39272531 68.56532158 -103.23486328 46.86474609 C-101.67085389 28.21583047 -94.16043134 11.63377994 -79.8125 -0.66796875 C-57.10117448 -16.85853554 -21.79341823 -19.82992176 0 0 Z M-71.0234375 15.34375 C-82.46098867 29.13173644 -86.53836291 44.45239623 -85.0234375 62.34375 C-83.17708162 75.70603692 -77.89440214 88.81321437 -67.0234375 97.34375 C-55.56844894 105.38701984 -42.89579192 108.97184368 -28.9453125 106.8828125 C-16.10119172 104.29572656 -6.23417635 98.66662099 1.9765625 88.34375 C10.88680894 74.61760764 13.52613534 59.44447711 10.9765625 43.34375 C7.86465689 29.067482 0.94512503 17.20049927 -11.26171875 8.953125 C-30.04961999 -1.99541151 -55.12923228 0.17610671 -71.0234375 15.34375 Z " fill="#FFFFFF" transform="translate(457.0234375,57.65625)"/>
<path d="M0 0 C15.30053142 16.94253967 15.40234375 34.15050097 15.40234375 56.66015625 C-20.56765625 56.66015625 -56.53765625 56.66015625 -93.59765625 56.66015625 C-88.46299809 79.27326634 -88.46299809 79.27326634 -72.91015625 94.91015625 C-59.53993869 102.2467374 -45.38652369 104.13098373 -30.59765625 100.09765625 C-16.54664362 95.03007793 -11.05158878 86.5680213 -4.59765625 73.66015625 C1.34234375 73.66015625 7.28234375 73.66015625 13.40234375 73.66015625 C11.66209132 85.84192325 6.05908972 94.12576711 -2.59765625 102.66015625 C-3.44457031 103.52253906 -3.44457031 103.52253906 -4.30859375 104.40234375 C-15.55123922 114.98688314 -30.94921512 118.2447212 -45.91015625 118.09765625 C-46.9995752 118.09008301 -48.08899414 118.08250977 -49.21142578 118.07470703 C-67.534443 117.70198938 -81.60914021 111.60277648 -94.59765625 98.66015625 C-95.16226563 98.11875 -95.726875 97.57734375 -96.30859375 97.01953125 C-109.3249283 83.38337125 -112.052053 63.58435254 -111.8125 45.59375 C-111.28109563 28.53269925 -105.07345364 11.66461775 -93.47265625 -1.02734375 C-67.90623496 -24.66636299 -24.89557378 -24.237541 0 0 Z M-82.97265625 13.03515625 C-89.4613858 21.33773815 -93.59765625 32.06179151 -93.59765625 42.66015625 C-63.56765625 42.66015625 -33.53765625 42.66015625 -2.59765625 42.66015625 C-2.59765625 29.80125777 -4.84723234 20.17378598 -13.6015625 10.4296875 C-23.60275636 0.89366545 -35.8239624 -2.76136913 -49.39013672 -2.70629883 C-62.85649362 -2.31133149 -73.81684132 3.18042415 -82.97265625 13.03515625 Z " fill="#FFFFFF" transform="translate(789.59765625,62.33984375)"/>
<path d="M0 0 C2.64282227 1.09472656 2.64282227 1.09472656 5.31640625 2.640625 C6.8166333 3.49515259 6.8166333 3.49515259 8.34716797 4.36694336 C9.40822754 4.98835205 10.46928711 5.60976074 11.5625 6.25 C12.67512207 6.88752197 13.78774414 7.52504395 14.93408203 8.18188477 C18.29582894 10.11031943 21.64811951 12.05448169 25 14 C27.626806 15.50899661 30.25633512 17.01311998 32.88671875 18.51586914 C34.55300578 19.46786967 36.21836371 20.42149816 37.8828125 21.37670898 C46.34494159 26.22493753 54.87515623 30.94974836 63.41357422 35.66186523 C70.6707162 39.67463144 77.85519799 43.7906032 85 48 C84.17480469 51.83105469 84.17480469 51.83105469 82.6015625 53.3515625 C76.33883488 57.38644235 69.79090974 60.82607153 63.17138672 64.23217773 C57.44998611 67.18383652 52.00921723 70.35765983 46.640625 73.91796875 C42.89541628 75.45261788 40.91904575 75.03323966 37 74 C33.56847367 72.47408511 30.3264912 70.66600895 27.0625 68.8125 C26.10448486 68.27931152 25.14646973 67.74612305 24.15942383 67.19677734 C16.11575438 62.69524434 8.15625776 58.04731918 0.21118164 53.37451172 C-8.33157669 48.35701745 -16.96084954 43.50428634 -25.62817383 38.70556641 C-31.19030819 35.6165602 -36.63909298 32.42715127 -42 29 C-42.30293082 25.74154593 -42.13906448 23.08525174 -41 20 C-37.7755136 17.0857232 -34.06272853 15.29806603 -30.1875 13.375 C-28.07771293 12.26510587 -25.96833377 11.15443597 -23.859375 10.04296875 C-22.84423828 9.52138184 -21.82910156 8.99979492 -20.78320312 8.46240234 C-16.51376863 6.21907668 -12.47033602 3.66294111 -8.40234375 1.07421875 C-5.35867439 -0.28677162 -3.32139791 -0.24233922 0 0 Z " fill="#FFFFFF" transform="translate(52,63)"/>
<path d="M0 0 C5.94 0 11.88 0 18 0 C18 10.89 18 21.78 18 33 C29.88 33 41.76 33 54 33 C54 38.28 54 43.56 54 49 C42.12 49 30.24 49 18 49 C18.040374 60.46621619 18.09751751 71.93201604 18.18390274 83.39797974 C18.22335369 88.72252608 18.25555396 94.04690763 18.27099609 99.37158203 C18.28617822 104.51353423 18.32065177 109.6550333 18.36830902 114.79678345 C18.38310671 116.75505629 18.39104009 118.71339384 18.39188385 120.67172241 C18.3942601 123.42226042 18.42139245 126.17155285 18.45410156 128.921875 C18.4490712 129.72532852 18.44404083 130.52878204 18.43885803 131.35658264 C18.53967956 136.86301445 19.67894242 141.50216175 23 146 C28.88194472 149.89614319 36.19016283 149.53834837 43 149.6875 C44.06089844 149.72166016 45.12179687 149.75582031 46.21484375 149.79101562 C48.80954111 149.87283041 51.40475102 149.93810673 54 150 C54 155.28 54 160.56 54 166 C18.53070992 166.69396437 18.53070992 166.69396437 8.1875 157.5 C1.31441195 149.64504223 -0.47549305 141.73055994 -0.34057617 131.41943359 C-0.34101425 130.52064484 -0.34145233 129.62185608 -0.34190369 128.6958313 C-0.33983519 125.76313562 -0.31659683 122.8310317 -0.29296875 119.8984375 C-0.28736588 117.85007031 -0.28309905 115.80169908 -0.28010559 113.75332642 C-0.26871121 108.39065234 -0.23929102 103.02822625 -0.20599365 97.66564941 C-0.17517566 92.18208164 -0.16157529 86.69847337 -0.14648438 81.21484375 C-0.11441571 70.47643662 -0.06169242 59.73827784 0 49 C-6.27 49 -12.54 49 -19 49 C-19 43.72 -19 38.44 -19 33 C-12.73 33 -6.46 33 0 33 C0 22.11 0 11.22 0 0 Z " fill="#FFFFFF" transform="translate(281,13)"/>
<path d="M0 0 C0.99 0 1.98 0 3 0 C3 0.66 3 1.32 3 2 C1.68 2.33 0.36 2.66 -1 3 C-0.67 2.01 -0.34 1.02 0 0 Z " fill="#FFFFFF" transform="translate(116,135)"/>
<path d="M0 0 C1.32 0.33 2.64 0.66 4 1 C3.01 1.495 3.01 1.495 2 2 C1.34 1.34 0.68 0.68 0 0 Z " fill="#FFFFFF" transform="translate(214,37)"/>
<path d="M0 0 C0.66 0 1.32 0 2 0 C2 0.66 2 1.32 2 2 C1.34 2 0.68 2 0 2 C0 1.34 0 0.68 0 0 Z " fill="#FFFFFF" transform="translate(161,205)"/>
<path d="M0 0 C0.66 0 1.32 0 2 0 C2 0.66 2 1.32 2 2 C1.34 2 0.68 2 0 2 C0 1.34 0 0.68 0 0 Z " fill="#FFFFFF" transform="translate(92,205)"/>
<path d="M0 0 C0.66 0 1.32 0 2 0 C2 0.66 2 1.32 2 2 C1.34 2 0.68 2 0 2 C0 1.34 0 0.68 0 0 Z " fill="#FFFFFF" transform="translate(90,201)"/>
<path d="M0 0 C0 3 0 3 0 3 Z " fill="#FFFFFF" transform="translate(117,129)"/>
<path d="M0 0 C0.66 0 1.32 0 2 0 C2 0.66 2 1.32 2 2 C1.34 2 0.68 2 0 2 C0 1.34 0 0.68 0 0 Z " fill="#FFFFFF" transform="translate(235,101)"/>
<path d="M0 0 C0 3 0 3 0 3 Z " fill="#FFFFFF" transform="translate(186,93)"/>
<path d="M0 0 C0.66 0 1.32 0 2 0 C2 0.66 2 1.32 2 2 C1.34 2 0.68 2 0 2 C0 1.34 0 0.68 0 0 Z " fill="#FFFFFF" transform="translate(90,72)"/>
<path d="M0 0 C0.66 0 1.32 0 2 0 C2 0.66 2 1.32 2 2 C1.34 2 0.68 2 0 2 C0 1.34 0 0.68 0 0 Z " fill="#FFFFFF" transform="translate(231,45)"/>
<path d="M0 0 C0.66 0 1.32 0 2 0 C2 0.66 2 1.32 2 2 C1.34 2 0.68 2 0 2 C0 1.34 0 0.68 0 0 Z " fill="#FFFFFF" transform="translate(168,5)"/>
<path d="M0 0 C0.99 0.495 0.99 0.495 2 1 C1.01 1.495 1.01 1.495 0 2 C0 1.34 0 0.68 0 0 Z " fill="#FFFFFF" transform="translate(136,218)"/>
<path d="M0 0 C0.33 0.66 0.66 1.32 1 2 C0.34 1.67 -0.32 1.34 -1 1 C-0.67 0.67 -0.34 0.34 0 0 Z " fill="#FFFFFF" transform="translate(168,200)"/>
<path d="M0 0 C0.66 0 1.32 0 2 0 C1.67 0.66 1.34 1.32 1 2 C0.67 1.34 0.34 0.68 0 0 Z " fill="#FFFFFF" transform="translate(235,149)"/>
<path d="M0 0 C0.66 0 1.32 0 2 0 C1.67 0.66 1.34 1.32 1 2 C0.67 1.34 0.34 0.68 0 0 Z " fill="#FFFFFF" transform="translate(136,109)"/>
<path d="M0 0 C0.66 0.66 1.32 1.32 2 2 C1.34 2 0.68 2 0 2 C0 1.34 0 0.68 0 0 Z " fill="#FFFFFF" transform="translate(93,73)"/>
<path d="M0 0 C0.66 0.66 1.32 1.32 2 2 C1.34 2 0.68 2 0 2 C0 1.34 0 0.68 0 0 Z " fill="#FFFFFF" transform="translate(65,57)"/>
<path d="M0 0 C0.33 0.66 0.66 1.32 1 2 C0.34 1.67 -0.32 1.34 -1 1 C-0.67 0.67 -0.34 0.34 0 0 Z " fill="#FFFFFF" transform="translate(21,57)"/>
<path d="M0 0 C0.99 0.495 0.99 0.495 2 1 C1.01 1.495 1.01 1.495 0 2 C0 1.34 0 0.68 0 0 Z " fill="#FFFFFF" transform="translate(67,49)"/>
<path d="M0 0 C0.66 0 1.32 0 2 0 C1.67 0.66 1.34 1.32 1 2 C0.67 1.34 0.34 0.68 0 0 Z " fill="#FFFFFF" transform="translate(70,47)"/>
<path d="M0 0 C0.99 0.495 0.99 0.495 2 1 C1.01 1.495 1.01 1.495 0 2 C0 1.34 0 0.68 0 0 Z " fill="#FFFFFF" transform="translate(114,22)"/>
<path d="M0 0 C2 1 2 1 2 1 Z " fill="#FFFFFF" transform="translate(163,234)"/>
<path d="M0 0 C2 1 2 1 2 1 Z " fill="#FFFFFF" transform="translate(70,218)"/>
<path d="M0 0 C2 1 2 1 2 1 Z " fill="#FFFFFF" transform="translate(109,211)"/>
<path d="" fill="#FFFFFF" transform="translate(0,0)"/>
<path d="M0 0 C2 1 2 1 2 1 Z " fill="#FFFFFF" transform="translate(86,198)"/>
<path d="" fill="#FFFFFF" transform="translate(0,0)"/>
<path d="" fill="#FFFFFF" transform="translate(0,0)"/>
<path d="" fill="#FFFFFF" transform="translate(0,0)"/>
<path d="" fill="#FFFFFF" transform="translate(0,0)"/>
<path d="" fill="#FFFFFF" transform="translate(0,0)"/>
<path d="M0 0 C2 1 2 1 2 1 Z " fill="#FFFFFF" transform="translate(75,141)"/>
<path d="" fill="#FFFFFF" transform="translate(0,0)"/>
<path d="M0 0 C2 1 2 1 2 1 Z " fill="#FFFFFF" transform="translate(69,138)"/>
<path d="" fill="#FFFFFF" transform="translate(0,0)"/>
<path d="" fill="#FFFFFF" transform="translate(0,0)"/>
<path d="M0 0 C2 1 2 1 2 1 Z " fill="#FFFFFF" transform="translate(143,120)"/>
<path d="" fill="#FFFFFF" transform="translate(0,0)"/>
<path d="M0 0 C2 1 2 1 2 1 Z " fill="#FFFFFF" transform="translate(166,109)"/>
<path d="" fill="#FFFFFF" transform="translate(0,0)"/>
<path d="" fill="#FFFFFF" transform="translate(0,0)"/>
<path d="" fill="#FFFFFF" transform="translate(0,0)"/>
<path d="M0 0 C2 1 2 1 2 1 Z " fill="#FFFFFF" transform="translate(88,71)"/>
<path d="M0 0 C2 1 2 1 2 1 Z " fill="#FFFFFF" transform="translate(70,69)"/>
<path d="M0 0 C2 1 2 1 2 1 Z " fill="#FFFFFF" transform="translate(70,64)"/>
<path d="M0 0 C2 1 2 1 2 1 Z " fill="#FFFFFF" transform="translate(48,61)"/>
<path d="" fill="#FFFFFF" transform="translate(0,0)"/>
<path d="" fill="#FFFFFF" transform="translate(0,0)"/>
<path d="M0 0 C2 1 2 1 2 1 Z " fill="#FFFFFF" transform="translate(165,8)"/>
<path d="M0 0 C2 1 2 1 2 1 Z " fill="#FFFFFF" transform="translate(163,7)"/>
<path d="" fill="#FFFFFF" transform="translate(0,0)"/>
<path d="M0 0 C2 1 2 1 2 1 Z " fill="#FFFFFF" transform="translate(144,5)"/>
<path d="" fill="#FFFFFF" transform="translate(0,0)"/>
<path d="" fill="#FFFFFF" transform="translate(0,0)"/>
<path d="" fill="#FFFFFF" transform="translate(0,0)"/>
<path d="" fill="#FFFFFF" transform="translate(0,0)"/>
<path d="" fill="#FFFFFF" transform="translate(0,0)"/>
<path d="" fill="#FFFFFF" transform="translate(0,0)"/>
<path d="" fill="#FFFFFF" transform="translate(0,0)"/>
<path d="" fill="#FFFFFF" transform="translate(0,0)"/>
<path d="" fill="#FFFFFF" transform="translate(0,0)"/>
<path d="" fill="#FFFFFF" transform="translate(0,0)"/>
<path d="" fill="#FFFFFF" transform="translate(0,0)"/>
<path d="" fill="#FFFFFF" transform="translate(0,0)"/>
<path d="" fill="#FFFFFF" transform="translate(0,0)"/>
<path d="" fill="#FFFFFF" transform="translate(0,0)"/>
<path d="" fill="#FFFFFF" transform="translate(0,0)"/>
<path d="" fill="#FFFFFF" transform="translate(0,0)"/>
<path d="" fill="#FFFFFF" transform="translate(0,0)"/>
<path d="" fill="#FFFFFF" transform="translate(0,0)"/>
<path d="" fill="#FFFFFF" transform="translate(0,0)"/>
<path d="" fill="#FFFFFF" transform="translate(0,0)"/>
<path d="" fill="#FFFFFF" transform="translate(0,0)"/>
<path d="" fill="#FFFFFF" transform="translate(0,0)"/>
<path d="" fill="#FFFFFF" transform="translate(0,0)"/>
<path d="" fill="#FFFFFF" transform="translate(0,0)"/>
<path d="" fill="#FFFFFF" transform="translate(0,0)"/>
<path d="" fill="#FFFFFF" transform="translate(0,0)"/>
<path d="" fill="#FFFFFF" transform="translate(0,0)"/>
<path d="" fill="#FFFFFF" transform="translate(0,0)"/>
<path d="" fill="#FFFFFF" transform="translate(0,0)"/>
<path d="" fill="#FFFFFF" transform="translate(0,0)"/>
<path d="" fill="#FFFFFF" transform="translate(0,0)"/>
<path d="" fill="#FFFFFF" transform="translate(0,0)"/>
<path d="" fill="#FFFFFF" transform="translate(0,0)"/>
<path d="" fill="#FFFFFF" transform="translate(0,0)"/>
<path d="" fill="#FFFFFF" transform="translate(0,0)"/>
<path d="" fill="#FFFFFF" transform="translate(0,0)"/>
<path d="" fill="#FFFFFF" transform="translate(0,0)"/>
<path d="" fill="#FFFFFF" transform="translate(0,0)"/>
<path d="" fill="#FFFFFF" transform="translate(0,0)"/>
<path d="" fill="#FFFFFF" transform="translate(0,0)"/>
<path d="" fill="#FFFFFF" transform="translate(0,0)"/>
<path d="" fill="#FFFFFF" transform="translate(0,0)"/>
<path d="" fill="#FFFFFF" transform="translate(0,0)"/>
<path d="" fill="#FFFFFF" transform="translate(0,0)"/>
<path d="" fill="#FFFFFF" transform="translate(0,0)"/>
<path d="" fill="#FFFFFF" transform="translate(0,0)"/>
<path d="" fill="#FFFFFF" transform="translate(0,0)"/>
<path d="" fill="#FFFFFF" transform="translate(0,0)"/>
</svg>
