<?xml version="1.0" encoding="UTF-8"?>
<svg version="1.1" xmlns="http://www.w3.org/2000/svg" width="1024" height="256">
<path d="M0 0 C1.03874268 0.57379395 2.07748535 1.14758789 3.14770508 1.73876953 C4.28788086 2.36138672 5.42805664 2.98400391 6.6027832 3.62548828 C7.79102351 4.29069344 8.97917366 4.95605967 10.16723633 5.62158203 C11.36649036 6.28025647 12.56635538 6.93781979 13.7668457 7.59423828 C22.26344676 12.26905565 22.26344676 12.26905565 25.97973633 14.74658203 C26.66723633 17.55908203 26.66723633 17.55908203 25.97973633 20.74658203 C24.55810547 21.9362793 24.55810547 21.9362793 22.63989258 23.06298828 C21.91455322 23.491521 21.18921387 23.92005371 20.44189453 24.36157227 C14.92021729 27.46761837 9.34571022 30.47065917 3.76098633 33.46142578 C2.81739258 33.97060547 1.87379883 34.47978516 0.90161133 35.00439453 C0.05179688 35.45959473 -0.79801758 35.91479492 -1.67358398 36.38378906 C-3.93289169 37.69584229 -5.9670882 39.13472674 -8.02026367 40.74658203 C-7.45218994 41.06820312 -6.88411621 41.38982422 -6.29882812 41.72119141 C-0.75261485 44.86514815 4.77915679 48.03318512 10.30297852 51.21630859 C12.61377027 52.5373632 14.93668902 53.8309399 17.26879883 55.11376953 C18.44382047 55.78208749 19.61834849 56.45127457 20.79223633 57.12158203 C21.80930664 57.68619141 22.82637695 58.25080078 23.87426758 58.83251953 C25.97973633 60.74658203 25.97973633 60.74658203 26.72583008 63.69970703 C25.97973633 66.74658203 25.97973633 66.74658203 23.24536133 68.95751953 C21.91932484 69.70161151 20.57920097 70.42087468 19.22973633 71.12158203 C17.66180073 71.98835855 16.09411013 72.85557835 14.52661133 73.72314453 C13.64811523 74.19913086 12.76961914 74.67511719 11.86450195 75.16552734 C6.95592256 77.85577448 2.12041396 80.67340419 -2.72973633 83.46716309 C-13.38278778 89.59186876 -24.1013276 95.59789422 -34.83520508 101.57958984 C-43.21721413 106.26471857 -51.51998585 111.07884585 -59.79272461 115.95410156 C-62.52869237 117.56312718 -65.27367083 119.15577746 -68.02026367 120.74658203 C-68.98609375 121.32021484 -69.95192383 121.89384766 -70.94702148 122.48486328 C-71.90189453 123.03529297 -72.85676758 123.58572266 -73.84057617 124.15283203 C-74.69151855 124.65105469 -75.54246094 125.14927734 -76.41918945 125.66259766 C-80.54401236 127.3815965 -83.60328258 127.31714087 -87.73901367 125.65185547 C-89.11573242 124.88663574 -89.11573242 124.88663574 -90.52026367 124.10595703 C-91.56029541 123.53635254 -92.60032715 122.96674805 -93.671875 122.37988281 C-94.77684326 121.75839355 -95.88181152 121.1369043 -97.02026367 120.49658203 C-98.18976251 119.85067853 -99.35993916 119.2060009 -100.53076172 118.5625 C-102.90754977 117.25408316 -105.28058543 115.93923508 -107.65063477 114.61865234 C-111.4970107 112.4817149 -115.36148738 110.37997428 -119.22998047 108.28344727 C-132.9139841 100.8606358 -146.53110723 93.31386952 -160.15356445 85.77886963 C-162.03074793 84.74078422 -163.90828232 83.70333593 -165.78588867 82.66601562 C-168.84687505 80.97466256 -171.90671182 79.28124653 -174.96572876 77.58633423 C-176.64826387 76.65453348 -178.33168435 75.72433199 -180.01513672 74.79418945 C-183.0244749 73.12477728 -186.02502961 71.44115362 -189.02026367 69.74658203 C-190.44653076 68.94462402 -190.44653076 68.94462402 -191.90161133 68.12646484 C-192.79283691 67.61180664 -193.6840625 67.09714844 -194.60229492 66.56689453 C-195.38451416 66.11846191 -196.1667334 65.6700293 -196.97265625 65.20800781 C-199.41628322 63.46393353 -200.63735457 62.4433635 -202.02026367 59.74658203 C-202.42598545 56.54981126 -202.36871121 53.3861905 -202.31323242 50.16845703 C-202.30898758 49.24188293 -202.30474274 48.31530884 -202.30036926 47.36065674 C-202.2835969 44.40566769 -202.24594722 41.45136442 -202.20776367 38.49658203 C-202.19271497 36.49138356 -202.17902689 34.48617438 -202.16674805 32.48095703 C-202.13369805 27.56923507 -202.08192549 22.65802477 -202.02026367 17.74658203 C-197.31042419 17.44548455 -194.62220595 18.12079678 -190.54760742 20.46533203 C-188.97184937 21.35768555 -188.97184937 21.35768555 -187.36425781 22.26806641 C-186.24011475 22.92097656 -185.11597168 23.57388672 -183.95776367 24.24658203 C-182.77163252 24.92311534 -181.58468547 25.59821996 -180.39697266 26.27197266 C-178.53266699 27.33002792 -176.6690909 28.38922714 -174.80818176 29.45324707 C-170.2999488 32.03046873 -165.76719534 34.55934544 -161.21557617 37.05908203 C-160.57477615 37.41103638 -159.93397614 37.76299072 -159.27375793 38.12561035 C-157.37707903 39.16651747 -155.47998684 40.2066673 -153.58276367 41.24658203 C-145.84475971 45.48847857 -138.15529813 49.79163284 -130.55908203 54.28369141 C-125.23663315 57.63768057 -125.23663315 57.63768057 -119.25854492 58.51220703 C-116.1092503 57.4349614 -113.17382468 55.99190593 -110.20776367 54.49658203 C-109.51473145 54.14869629 -108.82169922 53.80081055 -108.10766602 53.44238281 C-101.01947652 49.83106848 -94.12275609 45.89329813 -87.21630859 41.94873047 C-79.87702935 37.76645792 -72.47024041 33.72791249 -65.02026367 29.74658203 C-56.67161077 25.28072122 -48.37782752 20.73561339 -40.14526367 16.05908203 C-39.21270752 15.53096924 -38.28015137 15.00285645 -37.31933594 14.45874023 C-33.60096476 12.3518695 -29.88391038 10.24319002 -26.17895508 8.11279297 C-23.4448181 6.54192761 -20.70220067 4.98686227 -17.95776367 3.43408203 C-17.14259277 2.95946533 -16.32742187 2.48484863 -15.48754883 1.99584961 C-14.72361816 1.5668335 -13.9596875 1.13781738 -13.17260742 0.69580078 C-12.51252686 0.31770264 -11.85244629 -0.06039551 -11.17236328 -0.44995117 C-7.08591571 -1.97558917 -3.99468535 -1.65780572 0 0 Z " fill="#003290" transform="translate(212.020263671875,96.25341796875)"/>
<path d="M0 0 C3.68996327 3.73573026 6.50836193 8.24911079 9.51953125 12.55078125 C9.84953125 4.30078125 10.17953125 -3.94921875 10.51953125 -12.44921875 C16.45953125 -12.44921875 22.39953125 -12.44921875 28.51953125 -12.44921875 C28.589166 6.34500532 28.64261092 25.13919261 28.67496777 43.93351936 C28.69039515 52.66129084 28.71140511 61.38898036 28.74584961 70.11669922 C28.77587905 77.72937703 28.79513621 85.34199546 28.80179673 92.95473087 C28.8056862 96.98054734 28.81473942 101.00619401 28.83672142 105.03195572 C28.85730138 108.8322538 28.86332235 112.63231444 28.85885429 116.43266296 C28.86005472 118.4696559 28.87608298 120.50662383 28.89279175 122.54354858 C28.8326031 140.75359031 23.93229424 157.75739445 11.26953125 171.30078125 C-3.74875989 185.18937792 -22.21295119 188.26887485 -41.95654297 187.68701172 C-59.47626169 186.74137397 -75.26587486 179.6282791 -87.40625 167.04296875 C-93.07917537 160.22691152 -98.48046875 150.55970184 -98.48046875 141.55078125 C-92.54046875 141.55078125 -86.60046875 141.55078125 -80.48046875 141.55078125 C-79.51109375 143.53078125 -78.54171875 145.51078125 -77.54296875 147.55078125 C-71.85224433 158.43832839 -63.20717763 164.46344344 -51.7421875 168.51953125 C-38.03857179 172.52491825 -23.69338849 171.82095968 -10.921875 165.23046875 C-0.42958608 158.75462095 5.75376533 149.23490279 8.6484375 137.33203125 C10.13603251 129.45652825 9.72996891 121.4053364 9.64453125 113.42578125 C9.63448002 111.78516172 9.62535797 110.14453622 9.6171875 108.50390625 C9.59534674 104.5193816 9.56093555 100.53514866 9.51953125 96.55078125 C8.73485474 97.66682739 8.73485474 97.66682739 7.93432617 98.80541992 C7.23412354 99.78744385 6.5339209 100.76946777 5.8125 101.78125 C5.12438232 102.75215576 4.43626465 103.72306152 3.72729492 104.72338867 C-4.16869838 114.83546413 -16.88775129 121.48435222 -29.48046875 123.55078125 C-50.987746 125.2632777 -68.6497367 122.59584495 -85.66796875 108.48828125 C-99.73770313 95.14239172 -105.6648844 77.09894238 -106.6640625 58.05078125 C-107.01410377 39.60154706 -103.3403587 22.04904844 -91.48046875 7.55078125 C-90.32224609 6.07158203 -90.32224609 6.07158203 -89.140625 4.5625 C-67.02597431 -21.7702153 -25.16162203 -19.33201284 0 0 Z M-74.48046875 15.55078125 C-84.06864845 27.45475011 -87.88489442 39.25804555 -87.79296875 54.42578125 C-87.7873291 55.3988623 -87.78168945 56.37194336 -87.77587891 57.37451172 C-87.6607774 64.16777987 -87.16179528 70.23701613 -84.48046875 76.55078125 C-84.06667969 77.54078125 -83.65289063 78.53078125 -83.2265625 79.55078125 C-77.97322125 91.00220632 -70.33618592 99.71862625 -58.6640625 104.76953125 C-45.61918497 109.53167689 -31.87392389 110.12211354 -19.04077148 104.31152344 C-6.88572511 98.36432071 1.94406042 89.96220295 6.8046875 77.16796875 C12.20804942 60.16384055 11.98594357 43.69037103 4.45703125 27.30078125 C-2.60968694 14.15374095 -13.36940769 6.50406205 -27.48046875 2.11328125 C-43.79793003 -1.02469207 -62.92239833 3.06588443 -74.48046875 15.55078125 Z " fill="#133E87" transform="translate(623.48046875,63.44921875)"/>
<path d="M0 0 C3.47802969 0.90583707 5.9734319 2.20305194 9.03808594 4.07397461 C10.14490723 4.74154785 11.25172852 5.40912109 12.39208984 6.09692383 C12.96936829 6.45091248 13.54664673 6.80490112 14.14141846 7.1696167 C17.16585652 9.02385761 20.20870447 10.84749755 23.24902344 12.67553711 C24.14994217 13.2189978 24.14994217 13.2189978 25.06906128 13.7734375 C29.92197131 16.69445951 34.83414618 19.48634986 39.80371094 22.20288086 C47.6313418 26.4953952 55.32815444 30.98513535 63.00390625 35.54272461 C65.31435087 36.9080345 67.63229433 38.2598759 69.95214844 39.60913086 C70.73259521 40.06416992 71.51304199 40.51920898 72.31713867 40.98803711 C73.81795071 41.86267409 75.32001353 42.73516934 76.82348633 43.60522461 C81.95430695 46.60347687 81.95430695 46.60347687 84.17871094 48.82788086 C84.17871094 50.14788086 84.17871094 51.46788086 84.17871094 52.82788086 C82.60351563 54.22143555 82.60351563 54.22143555 80.35058594 55.49975586 C79.50230225 55.99096924 78.65401855 56.48218262 77.7800293 56.98828125 C76.83909424 57.51284912 75.89815918 58.03741699 74.92871094 58.57788086 C73.95232666 59.13789795 72.97594238 59.69791504 71.9699707 60.27490234 C69.84098828 61.49363258 67.70805953 62.70548808 65.57177734 63.91137695 C62.11318957 65.86488926 58.6658737 67.83744521 55.22167969 69.81616211 C48.21684082 73.83679111 41.19862375 77.83363349 34.17871094 81.82788086 C30.30281394 84.03464449 26.42799491 86.24328695 22.55371094 88.45288086 C21.74409912 88.91315674 20.9344873 89.37343262 20.1003418 89.84765625 C19.32956299 90.287146 18.55878418 90.72663574 17.76464844 91.17944336 C17.0140918 91.60386719 16.26353516 92.02829102 15.49023438 92.46557617 C13.85199907 93.43107606 12.24269908 94.44645316 10.65625 95.49487305 C5.14573999 99.08247747 1.77787546 100.905567 -4.82128906 99.82788086 C-7.67629854 98.73549156 -10.21000367 97.28307108 -12.82128906 95.70288086 C-13.9697229 95.03724121 -13.9697229 95.03724121 -15.14135742 94.3581543 C-17.71106115 92.86407519 -20.2657863 91.34610332 -22.82128906 89.82788086 C-25.67414292 88.15730436 -28.53015187 86.49220474 -31.38623047 84.82714844 C-33.39913557 83.65248928 -35.41051038 82.4752042 -37.42041016 81.29541016 C-44.87180121 76.92920405 -52.39411104 72.70427068 -59.94628906 68.51538086 C-66.80668608 64.69106769 -73.6594091 60.86633442 -80.32128906 56.70288086 C-81.38347656 56.04030273 -82.44566406 55.37772461 -83.54003906 54.69506836 C-86.0578833 52.63423009 -86.2407538 51.88679411 -86.82128906 48.82788086 C-80.34540545 44.10519901 -73.78358124 39.99773796 -66.69628906 36.26538086 C-58.70423903 31.98268374 -50.8224591 27.55290031 -43.00878906 22.95288086 C-33.32964031 17.25724876 -23.57108708 11.72300042 -13.75366211 6.26977539 C-12.26153198 5.44002197 -12.26153198 5.44002197 -10.73925781 4.59350586 C-9.86035889 4.1065625 -8.98145996 3.61961914 -8.07592773 3.11791992 C-2.37356887 -0.14480495 -2.37356887 -0.14480495 0 0 Z " fill="#4EA3E0" transform="translate(153.8212890625,8.172119140625)"/>
<path d="M0 0 C3.68996327 3.73573026 6.50836193 8.24911079 9.51953125 12.55078125 C9.84953125 4.30078125 10.17953125 -3.94921875 10.51953125 -12.44921875 C16.45953125 -12.44921875 22.39953125 -12.44921875 28.51953125 -12.44921875 C28.51953125 32.10078125 28.51953125 76.65078125 28.51953125 122.55078125 C22.57953125 122.55078125 16.63953125 122.55078125 10.51953125 122.55078125 C10.02453125 109.68078125 10.02453125 109.68078125 9.51953125 96.55078125 C8.40578125 98.20078125 7.29203125 99.85078125 6.14453125 101.55078125 C-2.28104928 113.045575 -13.9893682 120.28108249 -27.97485352 123.17138672 C-46.81373508 126.0239271 -64.72272633 123.55270989 -80.48046875 112.55078125 C-94.90764386 101.8844456 -102.93570631 86.08576168 -105.79296875 68.55078125 C-108.19526496 48.05118696 -106.00590695 26.65651929 -93.2890625 9.76171875 C-92.39380859 8.66730469 -92.39380859 8.66730469 -91.48046875 7.55078125 C-90.32224609 6.07158203 -90.32224609 6.07158203 -89.140625 4.5625 C-67.02597431 -21.7702153 -25.16162203 -19.33201284 0 0 Z M-74.48046875 15.55078125 C-84.06864845 27.45475011 -87.88489442 39.25804555 -87.79296875 54.42578125 C-87.7873291 55.3988623 -87.78168945 56.37194336 -87.77587891 57.37451172 C-87.6607774 64.16777987 -87.16179528 70.23701613 -84.48046875 76.55078125 C-84.06667969 77.54078125 -83.65289062 78.53078125 -83.2265625 79.55078125 C-77.97322125 91.00220632 -70.33618592 99.71862625 -58.6640625 104.76953125 C-45.61918497 109.53167689 -31.87392389 110.12211354 -19.04077148 104.31152344 C-6.88572511 98.36432071 1.94406042 89.96220295 6.8046875 77.16796875 C12.20804942 60.16384055 11.98594357 43.69037103 4.45703125 27.30078125 C-2.60968694 14.15374095 -13.36940769 6.50406205 -27.48046875 2.11328125 C-43.79793003 -1.02469207 -62.92239833 3.06588443 -74.48046875 15.55078125 Z " fill="#133E87" transform="translate(458.48046875,63.44921875)"/>
<path d="M0 0 C11.12743568 9.22809752 18.50651874 23.47695982 20.7265625 37.71875 C22.35714286 57.28571429 22.35714286 57.28571429 20 62 C-16.3 62 -52.6 62 -90 62 C-87.2685199 76.56789386 -84.68068817 89.77718126 -72.4921875 98.87109375 C-60.13114666 107.15195816 -46.60301646 109.96026117 -31.85546875 107.46875 C-20.0684481 104.43544678 -10.46240591 98.83594347 -4.10546875 88.1875 C-2.59254065 85.19372002 -1.32134356 82.08313496 0 79 C6.27 79 12.54 79 19 79 C15.42601697 95.08292361 6.76358782 106.86322099 -7 116 C-22.31630366 125.41555016 -42.13565037 126.42109906 -59.5625 123.30859375 C-74.77086063 119.58441528 -88.85981324 110.975002 -97.44140625 97.66015625 C-108.79546208 78.28142939 -111.97984877 57.04620551 -107 35 C-102.53110353 18.206725 -93.98645123 4.04518297 -79 -5.4375 C-53.66984524 -19.30116515 -23.15903359 -16.75261453 0 0 Z M-81.24609375 19.54296875 C-87.12398482 27.77725267 -90 36.9546433 -90 47 C-59.64 47 -29.28 47 2 47 C2 34.14110152 -0.24957609 24.51362973 -9.00390625 14.76953125 C-19.16544383 5.08062332 -31.69340484 1.56587529 -45.41821289 1.63647461 C-60.18539782 1.99641574 -71.79724704 8.33797276 -81.24609375 19.54296875 Z " fill="#133E87" transform="translate(791,63)"/>
<path d="M0 0 C1.53344182 0.76697904 3.04125316 1.58628322 4.52734375 2.44140625 C5.83119019 3.18753174 5.83119019 3.18753174 7.16137695 3.94873047 C8.53555786 4.74754639 8.53555786 4.74754639 9.9375 5.5625 C11.33971802 6.37678467 11.33971802 6.37678467 12.77026367 7.20751953 C14.64400448 8.2981249 16.516503 9.39086769 18.38769531 10.48583984 C20.66832234 11.80775095 22.96362883 13.09338886 25.2734375 14.36328125 C26.45355248 15.03310158 27.63327773 15.7036093 28.8125 16.375 C29.82957031 16.93960938 30.84664062 17.50421875 31.89453125 18.0859375 C34 20 34 20 34.74609375 22.953125 C34 26 34 26 31.265625 28.2109375 C29.93958852 28.95502948 28.59946465 29.67429265 27.25 30.375 C25.6820644 31.24177652 24.11437381 32.10899632 22.546875 32.9765625 C21.66837891 33.45254883 20.78988281 33.92853516 19.88476562 34.41894531 C14.97618624 37.10919245 10.14067763 39.92682216 5.29052734 42.72058105 C-5.3625241 48.84528673 -16.08106393 54.85131219 -26.81494141 60.83300781 C-35.19695046 65.51813653 -43.49972218 70.33226381 -51.77246094 75.20751953 C-54.5084287 76.81654515 -57.25340716 78.40919542 -60 80 C-60.96583008 80.57363281 -61.93166016 81.14726562 -62.92675781 81.73828125 C-64.35906738 82.56392578 -64.35906738 82.56392578 -65.8203125 83.40625 C-66.67125488 83.90447266 -67.52219727 84.40269531 -68.39892578 84.91601562 C-72.60227793 86.66774113 -75.64233052 86.55257241 -79.84570312 84.84179688 C-80.81443359 84.30619141 -81.78316406 83.77058594 -82.78125 83.21875 C-83.86486816 82.62723145 -84.94848633 82.03571289 -86.06494141 81.42626953 C-87.76529541 80.47276611 -87.76529541 80.47276611 -89.5 79.5 C-90.66920902 78.85560894 -91.83897034 78.21221901 -93.00927734 77.56982422 C-96.34801345 75.72797274 -99.67615103 73.868559 -103 72 C-103.85110352 71.52208008 -104.70220703 71.04416016 -105.57910156 70.55175781 C-109.40341578 68.39714418 -113.21185073 66.21778921 -117 64 C-115.74072995 60.22218986 -114.74865945 60.05480028 -111.28125 58.27734375 C-110.2809375 57.75382324 -109.280625 57.23030273 -108.25 56.69091797 C-107.1775 56.13291504 -106.105 55.57491211 -105 55 C-102.84037934 53.81994993 -100.68421905 52.63354879 -98.53125 51.44140625 C-97.39751953 50.81621094 -96.26378906 50.19101563 -95.09570312 49.546875 C-93.89711722 48.88544965 -92.69855 48.22399042 -91.5 47.5625 C-90.87472412 47.21751465 -90.24944824 46.8725293 -89.60522461 46.51708984 C-79.45676299 40.91732056 -69.32129772 35.2945325 -59.19213867 29.65991211 C-53.27543763 26.37016226 -47.35438828 23.08854399 -41.42578125 19.8203125 C-40.7934407 19.4716362 -40.16110016 19.1229599 -39.50959778 18.76371765 C-36.38023499 17.03864232 -33.24976379 15.3156253 -30.11743164 13.59594727 C-24.96808019 10.76578837 -19.82987168 7.92421581 -14.7578125 4.95703125 C-14.01039795 4.52245605 -13.2629834 4.08788086 -12.49291992 3.64013672 C-11.17678115 2.87005718 -9.86639781 2.09000199 -8.5637207 1.29736328 C-5.19478167 -0.67064524 -3.67167323 -1.28184692 0 0 Z " fill="#3691DB" transform="translate(204,137)"/>
<path d="M0 0 C2.64282227 1.09472656 2.64282227 1.09472656 5.31640625 2.640625 C6.8166333 3.49515259 6.8166333 3.49515259 8.34716797 4.36694336 C9.40822754 4.98835205 10.46928711 5.60976074 11.5625 6.25 C12.67512207 6.88752197 13.78774414 7.52504395 14.93408203 8.18188477 C18.29582894 10.11031943 21.64811951 12.05448169 25 14 C27.626806 15.50899661 30.25633512 17.01311998 32.88671875 18.51586914 C34.55300578 19.46786967 36.21836371 20.42149816 37.8828125 21.37670898 C46.34494159 26.22493753 54.87515623 30.94974836 63.41357422 35.66186523 C70.6707162 39.67463144 77.85519799 43.7906032 85 48 C84.17480469 51.83105469 84.17480469 51.83105469 82.6015625 53.3515625 C76.33883488 57.38644235 69.79090974 60.82607153 63.17138672 64.23217773 C57.44998611 67.18383652 52.00921723 70.35765983 46.640625 73.91796875 C42.89541628 75.45261788 40.91904575 75.03323966 37 74 C33.56847367 72.47408511 30.3264912 70.66600895 27.0625 68.8125 C26.10448486 68.27931152 25.14646973 67.74612305 24.15942383 67.19677734 C16.11575438 62.69524434 8.15625776 58.04731918 0.21118164 53.37451172 C-8.33157669 48.35701745 -16.96084954 43.50428634 -25.62817383 38.70556641 C-31.19030819 35.6165602 -36.63909298 32.42715127 -42 29 C-42.30293082 25.74154593 -42.13906448 23.08525174 -41 20 C-37.7755136 17.0857232 -34.06272853 15.29806603 -30.1875 13.375 C-28.07771293 12.26510587 -25.96833377 11.15443597 -23.859375 10.04296875 C-22.84423828 9.52138184 -21.82910156 8.99979492 -20.78320312 8.46240234 C-16.51376863 6.21907668 -12.47033602 3.66294111 -8.40234375 1.07421875 C-5.35867439 -0.28677162 -3.32139791 -0.24233922 0 0 Z " fill="#003290" transform="translate(52,67)"/>
<path d="M0 0 C5.94 0 11.88 0 18 0 C18 10.89 18 21.78 18 33 C30.21 33 42.42 33 55 33 C55 37.95 55 42.9 55 48 C42.79 48 30.58 48 18 48 C18.08562729 59.20534008 18.17944267 70.41053047 18.28752708 81.61567688 C18.33739498 86.81911573 18.38372574 92.02253521 18.421875 97.22607422 C18.45884803 102.25120142 18.50524032 107.27616275 18.55806351 112.30114746 C18.57654371 114.21477335 18.591675 116.12843471 18.60334396 118.04211426 C18.62031587 120.73007053 18.64937657 123.41765217 18.68115234 126.10546875 C18.68331253 126.89022079 18.68547272 127.67497284 18.68769836 128.48350525 C18.77901907 134.56170734 19.28345554 141.98266498 23 147 C28.23016625 150.13809975 33.06838172 151.05815136 39.08203125 151.31640625 C40.01337891 151.35830078 40.94472656 151.40019531 41.90429688 151.44335938 C42.86400391 151.48267578 43.82371094 151.52199219 44.8125 151.5625 C45.79154297 151.60568359 46.77058594 151.64886719 47.77929688 151.69335938 C50.18604898 151.79902166 52.59300703 151.89997465 55 152 C55 157.28 55 162.56 55 168 C18.07349666 168.72247507 18.07349666 168.72247507 7.125 158.25 C1.32027319 149.37218252 -0.15835788 141.3319382 -0.11352539 130.87353516 C-0.11367142 129.97533051 -0.11381744 129.07712585 -0.1139679 128.15170288 C-0.11327398 125.19746443 -0.10550605 122.24328987 -0.09765625 119.2890625 C-0.09579022 117.23497553 -0.09436719 115.18088811 -0.09336853 113.12680054 C-0.08955794 107.73129031 -0.07974012 102.33580717 -0.06866455 96.94030762 C-0.05841906 91.43026089 -0.05386419 85.92020977 -0.04882812 80.41015625 C-0.03811653 69.60675704 -0.02053155 58.80338502 0 48 C-6.27 48 -12.54 48 -19 48 C-19 43.05 -19 38.1 -19 33 C-12.73 33 -6.46 33 0 33 C0 22.11 0 11.22 0 0 Z " fill="#133E87" transform="translate(278,18)"/>
<path d="M0 0 C4.70983948 -0.30109748 7.39805773 0.37421475 11.47265625 2.71875 C13.04841431 3.61110352 13.04841431 3.61110352 14.65600586 4.52148438 C15.78014893 5.17439453 16.90429199 5.82730469 18.0625 6.5 C19.24863115 7.1765333 20.4355782 7.85163793 21.62329102 8.52539062 C23.48759668 9.58344589 25.35117277 10.64264511 27.21208191 11.70666504 C31.72031487 14.2838867 36.25306834 16.81276341 40.8046875 19.3125 C41.44548752 19.66445435 42.08628754 20.01640869 42.74650574 20.37902832 C44.64318464 21.41993544 46.54027684 22.46008527 48.4375 23.5 C52.9676627 25.98338997 57.4893498 28.48130136 62 31 C62.86736786 31.48146484 62.86736786 31.48146484 63.7522583 31.97265625 C65.45534211 32.92144551 67.15163274 33.8823969 68.84765625 34.84375 C69.83902588 35.40255859 70.83039551 35.96136719 71.85180664 36.53710938 C72.91516235 37.26124023 72.91516235 37.26124023 74 38 C74 38.66 74 39.32 74 40 C74.66 40.33 75.32 40.66 76 41 C73.6875 41.1875 73.6875 41.1875 71 41 C69.99633233 40.00368117 68.9970739 39.00291756 68 38 C66.2474808 36.94701651 64.45968704 35.9519222 62.65234375 34.99609375 C61.58097168 34.42528076 60.50959961 33.85446777 59.40576172 33.26635742 C58.26123535 32.66283447 57.11670898 32.05931152 55.9375 31.4375 C53.5625462 30.17422757 51.18962275 28.90715739 48.81640625 27.640625 C48.22802979 27.32731735 47.63965332 27.0140097 47.03344727 26.69120789 C42.11949939 24.07245771 37.23768652 21.40003387 32.375 18.6875 C31.67036621 18.29498047 30.96573242 17.90246094 30.23974609 17.49804688 C26.63555053 15.48554336 23.04008817 13.45805335 19.44921875 11.421875 C18.71203613 11.00462158 17.97485352 10.58736816 17.21533203 10.1574707 C15.82030391 9.36693367 14.42665654 8.5739531 13.03466797 7.77807617 C10.37530617 6.26967286 7.90922669 4.96974223 5 4 C5 3.34 5 2.68 5 2 C4.34 2 3.68 2 3 2 C2.92038554 7.74862119 2.89960737 13.4933531 2.93286133 19.24243164 C2.93593974 21.19689967 2.92306437 23.15146155 2.89379883 25.10571289 C2.85444457 27.91990024 2.87285566 30.72876316 2.90234375 33.54296875 C2.87776596 34.41398727 2.85318817 35.2850058 2.8278656 36.18241882 C2.88852087 38.75550664 3.01432302 40.61733199 4 43 C6.77278086 45.26546101 9.6806846 46.690826 13 48 C13 48.33 13 48.66 13 49 C7.72594947 48.58634898 4.82270102 47.71026864 1 44 C-0.14315747 41.71368506 -0.12112732 40.45652594 -0.11352539 37.91748047 C-0.11344986 37.07675995 -0.11337433 36.23603943 -0.11329651 35.36984253 C-0.10813522 34.46146637 -0.10297394 33.55309021 -0.09765625 32.6171875 C-0.0962413 31.68778351 -0.09482635 30.75837952 -0.09336853 29.80081177 C-0.08776053 26.82550876 -0.07520668 23.85028036 -0.0625 20.875 C-0.05748603 18.86067817 -0.05292295 16.84635516 -0.04882812 14.83203125 C-0.0377885 9.88799198 -0.02051849 4.94400865 0 0 Z " fill="#03185F" transform="translate(10,114)"/>
<path d="M0 0 C4.86257684 1.40955065 8.95526158 3.57039377 13.25 6.1875 C14.7544326 7.08853607 16.2596981 7.98818237 17.765625 8.88671875 C19.00602539 9.62801025 19.00602539 9.62801025 20.27148438 10.38427734 C25.48578977 13.47198968 30.74649385 16.47965187 36 19.5 C51.6276611 28.50550201 51.6276611 28.50550201 59 32.8125 C59.69351563 33.2146875 60.38703125 33.616875 61.1015625 34.03125 C63.66272685 35.53316737 65.89095422 36.89095422 68 39 C68 40.32 68 41.64 68 43 C66.42480469 44.39355469 66.42480469 44.39355469 64.171875 45.671875 C63.32359131 46.16308838 62.47530762 46.65430176 61.60131836 47.16040039 C60.6603833 47.68496826 59.71944824 48.20953613 58.75 48.75 C57.77361572 49.31001709 56.79723145 49.87003418 55.79125977 50.44702148 C53.66227735 51.66575172 51.52934859 52.87760722 49.39306641 54.08349609 C45.93447863 56.0370084 42.48716277 58.00956435 39.04296875 59.98828125 C32.03812988 64.00891025 25.01991282 68.00575263 18 72 C14.12410301 74.20676363 10.24928397 76.41540609 6.375 78.625 C5.56538818 79.08527588 4.75577637 79.54555176 3.92163086 80.01977539 C0.70190513 81.8556282 -2.50498851 83.69346683 -5.65649414 85.64501953 C-6.53684326 86.19013184 -7.41719238 86.73524414 -8.32421875 87.296875 C-9.11916748 87.79799805 -9.91411621 88.29912109 -10.7331543 88.81542969 C-14.51883295 90.79368632 -16.77695504 90.69230245 -21 90 C-23.55394546 88.86167002 -25.65757484 87.56161677 -28 86 C-26.1875 85.375 -26.1875 85.375 -24 85 C-23.01 85.66 -22.02 86.32 -21 87 C-13.73644329 88.3451031 -9.601721 85.32278919 -3.63671875 81.3359375 C0.09715448 78.86178157 4.01792241 76.77828683 7.95922852 74.65576172 C12.86697298 71.98339536 17.6994635 69.1808475 22.54248047 66.3934021 C33.03434919 60.3567788 43.57215536 54.42723776 54.24731445 48.71826172 C55.50161255 48.0436792 55.50161255 48.0436792 56.78125 47.35546875 C57.50376953 46.97028076 58.22628906 46.58509277 58.97070312 46.18823242 C61.1465603 44.91418323 63.11092638 43.67578255 65 42 C65 41.01 65 40.02 65 39 C63.85144531 38.3709375 62.70289063 37.741875 61.51953125 37.09375 C53.31262079 32.57839743 45.19223444 28.011097 37.28515625 22.984375 C34.5035893 21.30418949 31.70419119 19.73402516 28.84765625 18.1875 C22.95122272 14.99461898 17.1532549 11.65127318 11.375 8.25 C10.38371094 7.67378906 9.39242187 7.09757812 8.37109375 6.50390625 C6.96150391 5.67439453 6.96150391 5.67439453 5.5234375 4.828125 C4.67700684 4.3321582 3.83057617 3.83619141 2.95849609 3.32519531 C1 2 1 2 0 0 Z " fill="#4B8EC4" transform="translate(170,18)"/>
<path d="M0 0 C0 0.66 0 1.32 0 2 C-0.8765625 2.48726562 -1.753125 2.97453125 -2.65625 3.4765625 C-11.9975388 8.69080314 -21.24568195 14.05272792 -30.47143555 19.46850586 C-35.94724058 22.67167709 -41.44567333 25.82709828 -46.9921875 28.90625 C-48.13244385 29.53958252 -49.2727002 30.17291504 -50.44750977 30.82543945 C-52.65112358 32.04483745 -54.85725614 33.25969742 -57.06616211 34.46948242 C-58.06139893 35.01967041 -59.05663574 35.5698584 -60.08203125 36.13671875 C-60.96093018 36.61842529 -61.8398291 37.10013184 -62.74536133 37.59643555 C-66.18186418 39.73573765 -67.70814345 41.12443034 -69 45 C-68.29101562 45.26296875 -67.58203125 45.5259375 -66.8515625 45.796875 C-63.84724146 47.06445155 -61.17237369 48.57609984 -58.375 50.25 C-53.6379027 53.07928003 -48.82902786 55.74300221 -43.97998047 58.37597656 C-31.25151685 65.31270768 -18.6072303 72.42374541 -6.0625 79.6875 C-5.36560059 80.08485352 -4.66870117 80.48220703 -3.95068359 80.89160156 C-0.82410297 82.7198901 0.95704276 83.93556414 3 87 C-1.81957445 85.59981782 -5.87013329 83.47332769 -10.125 80.875 C-17.41788862 76.50190918 -24.77474618 72.24975174 -32.16513062 68.04440308 C-40.73344775 63.16733834 -49.30000836 58.28652656 -57.8125 53.3125 C-58.45638672 52.93931641 -59.10027344 52.56613281 -59.76367188 52.18164062 C-64.02266193 49.67931242 -68.01201328 46.91567275 -72 44 C-71.2578125 40.20605469 -71.2578125 40.20605469 -68.9375 38.3515625 C-67.968125 37.78179687 -66.99875 37.21203125 -66 36.625 C-65.44094971 36.29322754 -64.88189941 35.96145508 -64.3059082 35.61962891 C-57.26229917 31.48364656 -50.09688541 27.54996892 -42.95947266 23.57910156 C-33.24761707 18.16934527 -23.64236141 12.58709823 -14.0546875 6.9609375 C-13.18424805 6.45143555 -12.31380859 5.94193359 -11.41699219 5.41699219 C-9.8889285 4.52114555 -8.36321386 3.62126921 -6.84082031 2.71582031 C-2.22083151 0 -2.22083151 0 0 0 Z " fill="#256CBB" transform="translate(139,16)"/>
<path d="M0 0 C17.04209918 8.91142943 33.71941948 18.47017391 50.3125 28.1875 C57.58046855 32.43774302 64.85343449 36.67706868 72.1875 40.8125 C72.91171143 41.22717529 73.63592285 41.64185059 74.38208008 42.0690918 C77.91009666 44.04104111 80.91745656 45.5164366 85 46 C85 46.66 85 47.32 85 48 C78.67106799 48.85077447 74.42088568 45.90350666 69.125 42.875 C68.16247314 42.3372998 67.19994629 41.79959961 66.20825195 41.24560547 C58.15253846 36.72129725 50.17532496 32.05836482 42.21142578 27.37475586 C33.66869635 22.35699284 25.03924583 17.50433914 16.37182617 12.70556641 C13.57292684 11.15115998 10.78326698 9.5822042 8 8 C7.17757813 7.53609863 6.35515625 7.07219727 5.5078125 6.59423828 C3.61797241 5.48312835 1.79899327 4.25287031 0 3 C0 2.01 0 1.02 0 0 Z " fill="#051C63" transform="translate(10,93)"/>
<path d="M0 0 C-48.51291306 28.47371003 -48.51291306 28.47371003 -55 28 C-57.84570312 26.84179688 -57.84570312 26.84179688 -60.78125 25.21875 C-61.86486816 24.62723145 -62.94848633 24.03571289 -64.06494141 23.42626953 C-65.19851074 22.79060059 -66.33208008 22.15493164 -67.5 21.5 C-68.66920902 20.85560894 -69.83897034 20.21221901 -71.00927734 19.56982422 C-74.34801345 17.72797274 -77.67615103 15.868559 -81 14 C-81.85110352 13.52208008 -82.70220703 13.04416016 -83.57910156 12.55175781 C-87.40341578 10.39714418 -91.21185073 8.21778921 -95 6 C-94.67 5.01 -94.34 4.02 -94 3 C-93.67 3.66 -93.34 4.32 -93 5 C-91.00120011 5.67025625 -89.00092017 6.33610022 -87 7 C-84.519245 8.22533433 -82.13783932 9.60372108 -79.75 11 C-79.12609375 11.35578125 -78.5021875 11.7115625 -77.859375 12.078125 C-75.30321356 13.55452859 -73.09638349 14.90361651 -71 17 C-69.35963868 17.70301199 -67.71712716 18.40156735 -66.0625 19.0703125 C-62.99095265 20.45483574 -60.16679271 22.23386655 -57.30859375 24.01171875 C-54.29432806 25.30208968 -52.25767659 25.35966734 -49 25 C-46.10434384 23.71784875 -46.10434384 23.71784875 -43.3125 21.875 C-39.29799999 19.40645652 -35.28359857 17.03079747 -31.125 14.8125 C-28.31471199 13.29526474 -25.66019353 11.77346236 -23 10 C-18.51074052 7.00716035 -13.75846312 4.53501458 -9 2 C-8.0409375 1.46246094 -8.0409375 1.46246094 -7.0625 0.9140625 C-3.34155598 -1.11385199 -3.34155598 -1.11385199 0 0 Z " fill="#1C64B6" transform="translate(182,195)"/>
<path d="M0 0 C3.2184875 0.65120257 5.6871108 1.80708556 8.52734375 3.44140625 C9.39657471 3.93882324 10.26580566 4.43624023 11.16137695 4.94873047 C12.07749756 5.48127441 12.99361816 6.01381836 13.9375 6.5625 C14.87231201 7.10535645 15.80712402 7.64821289 16.77026367 8.20751953 C18.64400448 9.2981249 20.516503 10.39086769 22.38769531 11.48583984 C24.66832234 12.80775095 26.96362883 14.09338886 29.2734375 15.36328125 C30.45355248 16.03310158 31.63327773 16.7036093 32.8125 17.375 C33.82957031 17.93960938 34.84664062 18.50421875 35.89453125 19.0859375 C38 21 38 21 38.74609375 23.953125 C38 27 38 27 35.265625 29.2109375 C33.93959011 29.95503231 32.59950849 30.67437708 31.25 31.375 C29.70288277 32.2300306 28.15602767 33.0855356 26.609375 33.94140625 C25.73345703 34.41594238 24.85753906 34.89047852 23.95507812 35.37939453 C20.5971218 37.22094394 17.272649 39.1177719 13.953125 41.02734375 C13.34059875 41.37951965 12.72807251 41.73169556 12.09698486 42.09454346 C10.85053036 42.81132507 9.60413155 43.52820356 8.35778809 44.24517822 C3.24829003 47.1806468 -1.87519791 50.09135046 -7 53 C-8.37285156 53.78769775 -8.37285156 53.78769775 -9.7734375 54.59130859 C-10.58039063 55.04973145 -11.38734375 55.5081543 -12.21875 55.98046875 C-12.90904297 56.37516357 -13.59933594 56.7698584 -14.31054688 57.17651367 C-16 58 -16 58 -18 58 C-18 57.34 -18 56.68 -18 56 C-16.41638672 55.12601563 -16.41638672 55.12601563 -14.80078125 54.234375 C-6.25063008 49.50537834 2.26918839 44.72735941 10.75 39.875 C11.63042969 39.37162109 12.51085937 38.86824219 13.41796875 38.34960938 C17.40921883 36.06506548 21.3958248 33.7731868 25.37109375 31.4609375 C26.02303711 31.08340332 26.67498047 30.70586914 27.34667969 30.31689453 C29.05987665 29.32396738 30.77028774 28.32623776 32.48046875 27.328125 C35 26 35 26 37 26 C36.67 24.35 36.34 22.7 36 21 C35.45472656 20.90074219 34.90945312 20.80148438 34.34765625 20.69921875 C31.39156624 19.81878595 29.07867083 18.40564299 26.4375 16.8125 C21.51070817 13.88045803 16.53519039 11.08161379 11.4921875 8.35546875 C8.29905238 6.6187636 5.14720042 4.81838246 2 3 C2 2.34 2 1.68 2 1 C1.34 0.67 0.68 0.34 0 0 Z " fill="#2F78BF" transform="translate(200,136)"/>
<path d="M0 0 C1.60746056 0.42523816 3.21089836 0.86570126 4.8125 1.3125 C6.15248047 1.67794922 6.15248047 1.67794922 7.51953125 2.05078125 C10.09744474 3.03728988 11.19685334 3.96880832 13 6 C15.95361812 7.96907875 18.49850918 9.35157577 22 10 C22 10.66 22 11.32 22 12 C22.928125 12.103125 23.85625 12.20625 24.8125 12.3125 C28.22006102 13.04746414 28.79821448 13.51102506 31 16 C33.95361812 17.96907875 36.49850918 19.35157577 40 20 C40 20.66 40 21.32 40 22 C40.79664063 22.22429687 41.59328125 22.44859375 42.4140625 22.6796875 C47.02076296 24.37583647 51.11719741 26.70070092 55.375 29.125 C56.20644531 29.59292969 57.03789063 30.06085938 57.89453125 30.54296875 C59.93234954 31.69070549 61.96735569 32.84313282 64 34 C63.505 34.99 63.505 34.99 63 36 C56.88374295 34.31880287 51.58480238 31.22487707 46.0625 28.1875 C45.01505615 27.61580078 43.9676123 27.04410156 42.88842773 26.45507812 C32.70347011 20.87761947 22.58516932 15.180457 12.50830078 9.41015625 C10.81168772 8.45632745 9.1010167 7.52715052 7.37841797 6.62109375 C6.56131348 6.18925781 5.74420898 5.75742188 4.90234375 5.3125 C4.17394287 4.93738281 3.44554199 4.56226563 2.69506836 4.17578125 C1 3 1 3 0 0 Z " fill="#061D64" transform="translate(24,164)"/>
<path d="M0 0 C3.2890625 1.70703125 3.2890625 1.70703125 6.625 3.8125 C7.73101562 4.49957031 8.83703125 5.18664062 9.9765625 5.89453125 C13 8 13 8 14.8112793 9.90649414 C17.36111867 12.3454091 19.96534965 13.87794637 23.04296875 15.6015625 C23.61203445 15.92410004 24.18110016 16.24663757 24.76741028 16.57894897 C26.57067721 17.6005283 28.37850553 18.61360216 30.1875 19.625 C32.00695327 20.64395151 33.82517543 21.6648128 35.63972473 22.69247437 C37.27789028 23.62013152 38.92045922 24.53999978 40.56323242 25.45947266 C43 27 43 27 44 29 C38.79507237 27.5198487 34.58207085 25.15960591 30 22.375 C28.49136591 21.47185314 26.9822437 20.56952119 25.47265625 19.66796875 C24.72258301 19.21856934 23.97250977 18.76916992 23.19970703 18.30615234 C18.84837051 15.72239536 14.43367366 13.25005855 10.02734375 10.76171875 C6.86006952 8.91856949 3.82136699 6.9473952 0.84375 4.8125 C-1.98247046 3.56704692 -3.92969557 3.64031458 -7 4 C-9.55351162 5.27396813 -11.85732821 6.54426864 -14.25 8.0625 C-16.47584797 9.45365498 -18.68894761 10.74669851 -21 12 C-21.66 11.67 -22.32 11.34 -23 11 C-21.35 10.34 -19.7 9.68 -18 9 C-18 8.01 -18 7.02 -18 6 C-15.5859375 4.140625 -15.5859375 4.140625 -12.375 2.25 C-10.80878906 1.29867188 -10.80878906 1.29867188 -9.2109375 0.328125 C-5.41634324 -1.24141521 -3.8896506 -1.21425621 0 0 Z " fill="#5AAADF" transform="translate(157,9)"/>
<path d="M0 0 C4.19965471 0.91657994 7.61558548 2.87471849 11.3125 5 C12.00730469 5.39501709 12.70210937 5.79003418 13.41796875 6.19702148 C20.68174726 10.34763499 27.85114691 14.65522291 35 19 C34.81640625 20.78515625 34.81640625 20.78515625 34 23 C31.90234375 24.68359375 31.90234375 24.68359375 28.9375 26.4375 C28.38312256 26.7675 27.82874512 27.0975 27.25756836 27.4375 C20.25072974 31.54498885 13.06718842 35.35393352 5.90942383 39.18969727 C-1.02259911 42.90485986 -7.84519931 46.75368426 -14.5859375 50.8046875 C-15.78089844 51.39636719 -15.78089844 51.39636719 -17 52 C-17.66 51.67 -18.32 51.34 -19 51 C-10.20868437 45.02695301 -0.90391767 40.06394445 8.4375 35.01953125 C14.05723483 31.98228132 19.62388859 28.85676949 25.16479492 25.67822266 C27.76195625 24.19961824 30.1551113 22.94829623 33 22 C29.64820532 18.2132396 25.95098843 16.10693533 21.5625 13.75 C20.13558907 12.96559316 18.70982512 12.17909663 17.28515625 11.390625 C16.57117676 10.99552734 15.85719727 10.60042969 15.12158203 10.19335938 C11.87134046 8.36514524 8.67870832 6.44938103 5.5 4.5 C4.4378125 3.8503125 3.375625 3.200625 2.28125 2.53125 C1.5284375 2.0259375 0.775625 1.520625 0 1 C0 0.67 0 0.34 0 0 Z " fill="#64B9EC" transform="translate(201,38)"/>
<path d="M0 0 C8.37753214 1.9861948 15.3243128 5.66272119 22.75 9.9375 C24.52588976 10.94726517 26.30352578 11.95390546 28.08132935 12.96029663 C29.28241077 13.64046385 30.48283091 14.32180012 31.68258667 15.00430298 C35.63048561 17.24534054 39.60952294 19.41766947 43.6171875 21.55078125 C44.63329102 22.0929126 45.64939453 22.63504395 46.69628906 23.19360352 C48.6138854 24.21266626 50.53500089 25.22514084 52.45996094 26.23022461 C53.73661621 26.91290405 53.73661621 26.91290405 55.0390625 27.609375 C55.78365723 28.00092773 56.52825195 28.39248047 57.29541016 28.79589844 C59 30 59 30 60 33 C60.99 33.495 60.99 33.495 62 34 C59.6875 34.1875 59.6875 34.1875 57 34 C55.99633233 33.00368117 54.9970739 32.00291756 54 31 C52.2474808 29.94701651 50.45968704 28.9519222 48.65234375 27.99609375 C47.58048828 27.42503906 46.50863281 26.85398438 45.40429688 26.265625 C44.26025391 25.66234375 43.11621094 25.0590625 41.9375 24.4375 C40.16328722 23.49357659 38.39025794 22.54745769 36.61734009 21.60110474 C34.84939971 20.65744436 33.08070757 19.71519286 31.31201172 18.77294922 C6.94630522 5.72977064 6.94630522 5.72977064 0 1 C0 0.67 0 0.34 0 0 Z " fill="#041F6F" transform="translate(24,121)"/>
<path d="M0 0 C0 0.66 0 1.32 0 2 C-0.8765625 2.48726562 -1.753125 2.97453125 -2.65625 3.4765625 C-11.99925471 8.69176095 -21.25075648 14.05201142 -30.47583008 19.47290039 C-35.92231325 22.66140974 -41.39422669 25.78999557 -46.921875 28.8359375 C-48.61872437 29.77240112 -48.61872437 29.77240112 -50.34985352 30.7277832 C-52.52590049 31.92396439 -54.70591387 33.11296671 -56.89038086 34.29370117 C-61.9528213 37.07756905 -66.22899465 39.58817021 -70 44 C-69.44974714 40.14822996 -67.84490441 38.5660523 -65 36 C-63.36521719 34.9527278 -61.6888403 33.96862795 -59.984375 33.0390625 C-58.99219971 32.4920166 -58.00002441 31.9449707 -56.9777832 31.38134766 C-55.91261475 30.80175293 -54.84744629 30.2221582 -53.75 29.625 C-51.48725834 28.37685262 -49.22556619 27.12680101 -46.96484375 25.875 C-46.38780197 25.55600739 -45.81076019 25.23701477 -45.2162323 24.90835571 C-39.19492584 21.571466 -33.25018597 18.10783607 -27.3125 14.625 C-26.31814941 14.04298828 -25.32379883 13.46097656 -24.29931641 12.86132812 C-22.40162602 11.75039186 -20.50415409 10.6390823 -18.60693359 9.52734375 C-14.95081495 7.38530608 -11.29303804 5.24656936 -7.625 3.125 C-6.56539062 2.50882813 -5.50578125 1.89265625 -4.4140625 1.2578125 C-2 0 -2 0 0 0 Z " fill="#418CCA" transform="translate(139,16)"/>
<path d="M0 0 C-2.28874173 1.33858524 -4.58069656 2.67101014 -6.875 4 C-7.52597656 4.3815625 -8.17695313 4.763125 -8.84765625 5.15625 C-13.7734375 8 -13.7734375 8 -16 8 C-16 8.66 -16 9.32 -16 10 C-17.01578125 10.49628906 -18.0315625 10.99257812 -19.078125 11.50390625 C-26.71401017 15.26273891 -34.1736671 19.12967023 -41.44921875 23.5546875 C-46.15145113 26.21904582 -49.56944638 27.25258389 -55 27 C-55.33 26.34 -55.66 25.68 -56 25 C-54.02 25.33 -52.04 25.66 -50 26 C-49.67 25.01 -49.34 24.02 -49 23 C-46.80641948 21.7526699 -44.66148284 20.67601773 -42.375 19.625 C-34.03645911 15.6465628 -26.05199233 11.13175766 -18.07177734 6.48095703 C-3.65160346 -1.82580173 -3.65160346 -1.82580173 0 0 Z " fill="#052474" transform="translate(144,131)"/>
<path d="M0 0 C4.23485043 0.53306079 7.32866636 1.45876355 11.01953125 3.58984375 C11.9520874 4.1223877 12.88464355 4.65493164 13.84545898 5.20361328 C14.82458252 5.7757959 15.80370605 6.34797852 16.8125 6.9375 C17.8219165 7.51999512 18.83133301 8.10249023 19.87133789 8.70263672 C21.92783347 9.89119529 23.98212819 11.0835702 26.03417969 12.27978516 C28.77395489 13.86889086 31.52737611 15.42985407 34.2890625 16.98046875 C35.83885063 17.86143587 37.38834935 18.74291238 38.9375 19.625 C39.65848877 20.02581787 40.37947754 20.42663574 41.12231445 20.83959961 C43.08984375 21.9765625 43.08984375 21.9765625 46 24 C46 24.99 46 25.98 46 27 C36.82770947 22.16977417 27.75773033 17.21069767 18.78222656 12.02197266 C16.90089606 10.94317136 15.01035001 9.88210702 13.1171875 8.82421875 C12.48047119 8.46650391 11.84375488 8.10878906 11.18774414 7.74023438 C9.41442359 6.7447184 7.63891731 5.75309879 5.86328125 4.76171875 C3.51002735 3.31380946 1.79745062 2.06421008 0 0 Z " fill="#08267D" transform="translate(55,71)"/>
<path d="M0 0 C0 0.66 0 1.32 0 2 C0.72058594 2.268125 1.44117188 2.53625 2.18359375 2.8125 C5.00032278 4.0001361 7.46478269 5.39399239 10.0625 7 C12.99172403 8.80537691 15.8974432 10.50962629 19 12 C16 13 16 13 14.0546875 12.1796875 C13.33539063 11.74914062 12.61609375 11.31859375 11.875 10.875 C11.08996094 10.41480469 10.30492187 9.95460937 9.49609375 9.48046875 C8.67238281 8.99191406 7.84867188 8.50335938 7 8 C5.31538443 7.05732673 3.62801459 6.11955307 1.9375 5.1875 C0.625 4.45833333 -0.6875 3.72916667 -2 3 C-2.61875 3.4125 -3.2375 3.825 -3.875 4.25 C-6.43263738 5.68227693 -8.71190461 6.67718869 -11.4375 7.6875 C-18.36566305 10.36024066 -24.63275278 14.22002038 -31 18 C-31 17.01 -31 16.02 -31 15 C-27.3340269 13.02411423 -23.6678438 11.04861884 -20.00146484 9.07348633 C-18.75401103 8.4013934 -17.50661486 7.72919349 -16.25927734 7.05688477 C-14.46727365 6.09102756 -12.67506362 5.12555423 -10.8828125 4.16015625 C-9.80402832 3.57886963 -8.72524414 2.99758301 -7.61376953 2.39868164 C-3.131262 0 -3.131262 0 0 0 Z " fill="#55B7ED" transform="translate(202,137)"/>
<path d="M0 0 C-0.5561499 0.27239502 -1.1122998 0.54479004 -1.68530273 0.82543945 C-6.22513537 3.12911362 -10.62881568 5.68738685 -15.0625 8.1875 C-16.04927734 8.73986328 -17.03605469 9.29222656 -18.05273438 9.86132812 C-24.11611339 13.28016855 -30.01033581 16.86987071 -35.81811523 20.70825195 C-38 22 -38 22 -40 22 C-40 21.01 -40 20.02 -40 19 C-39.04915527 18.46427368 -39.04915527 18.46427368 -38.07910156 17.91772461 C-36.1954933 16.85601407 -34.31222081 15.79370772 -32.42919922 14.73095703 C-30.30676917 13.53364701 -28.18339283 12.33801291 -26.05908203 11.14404297 C-19.46463609 7.43409985 -19.46463609 7.43409985 -12.9765625 3.54296875 C-11.95304687 2.91003906 -10.92953125 2.27710937 -9.875 1.625 C-9.02679688 1.08101563 -8.17859375 0.53703125 -7.3046875 -0.0234375 C-4.45766463 -1.22980312 -2.9135236 -0.88131497 0 0 Z " fill="#07206C" transform="translate(51,68)"/>
<path d="M0 0 C0.99 0.33 1.98 0.66 3 1 C2.29915283 1.40839111 1.59830566 1.81678223 0.8762207 2.23754883 C-2.31187828 4.09553651 -5.49969186 5.95401335 -8.6875 7.8125 C-9.79029297 8.45509766 -10.89308594 9.09769531 -12.02929688 9.75976562 C-13.09599609 10.38173828 -14.16269531 11.00371094 -15.26171875 11.64453125 C-16.24100342 12.21534424 -17.22028809 12.78615723 -18.22924805 13.37426758 C-20.04676296 14.44069033 -21.84397157 15.54267128 -23.61645508 16.68237305 C-27.04203974 18.57604102 -30.22680672 18.6763271 -34 18 C-36.56868401 16.8804415 -38.65243877 15.56504082 -41 14 C-39.1875 13.375 -39.1875 13.375 -37 13 C-36.01 13.66 -35.02 14.32 -34 15 C-26.67327876 16.35680023 -22.31006856 13.11712669 -16.3359375 9.17578125 C-11.09699593 5.7588135 -5.59325533 2.79662767 0 0 Z " fill="#2B73BF" transform="translate(183,90)"/>
<path d="M0 0 C3.2184875 0.65120257 5.6871108 1.80708556 8.52734375 3.44140625 C9.39657471 3.93882324 10.26580566 4.43624023 11.16137695 4.94873047 C12.07749756 5.48127441 12.99361816 6.01381836 13.9375 6.5625 C14.87231201 7.10535645 15.80712402 7.64821289 16.77026367 8.20751953 C18.64400448 9.2981249 20.516503 10.39086769 22.38769531 11.48583984 C24.66832234 12.80775095 26.96362883 14.09338886 29.2734375 15.36328125 C30.45355248 16.03310158 31.63327773 16.7036093 32.8125 17.375 C33.82957031 17.93960938 34.84664062 18.50421875 35.89453125 19.0859375 C38 21 38 21 38.32421875 24.2265625 C38.21722656 25.14179688 38.11023438 26.05703125 38 27 C36.35 27.33 34.7 27.66 33 28 C34.32 27.34 35.64 26.68 37 26 C36.67 24.35 36.34 22.7 36 21 C35.45472656 20.90074219 34.90945312 20.80148438 34.34765625 20.69921875 C31.39156624 19.81878595 29.07867083 18.40564299 26.4375 16.8125 C21.51070817 13.88045803 16.53519039 11.08161379 11.4921875 8.35546875 C8.29905238 6.6187636 5.14720042 4.81838246 2 3 C2 2.34 2 1.68 2 1 C1.34 0.67 0.68 0.34 0 0 Z " fill="#3E84C3" transform="translate(200,136)"/>
<path d="M0 0 C4.19965471 0.91657994 7.61558548 2.87471849 11.3125 5 C12.00730469 5.39501709 12.70210937 5.79003418 13.41796875 6.19702148 C20.68174726 10.34763499 27.85114691 14.65522291 35 19 C34.44111746 21.75449251 34.20408073 22.80272197 32.125 24.8125 C31.42375 25.204375 30.7225 25.59625 30 26 C29.01 25.67 28.02 25.34 27 25 C30.75 22 30.75 22 33 22 C29.64820532 18.2132396 25.95098843 16.10693533 21.5625 13.75 C20.13558907 12.96559316 18.70982512 12.17909663 17.28515625 11.390625 C16.57117676 10.99552734 15.85719727 10.60042969 15.12158203 10.19335938 C11.87134046 8.36514524 8.67870832 6.44938103 5.5 4.5 C4.4378125 3.8503125 3.375625 3.200625 2.28125 2.53125 C1.5284375 2.0259375 0.775625 1.520625 0 1 C0 0.67 0 0.34 0 0 Z " fill="#66BBEC" transform="translate(201,38)"/>
<path d="M0 0 C5.21395444 1.48503867 9.46326162 3.84528075 14.0625 6.625 C14.80040771 7.06505371 15.53831543 7.50510742 16.29858398 7.95849609 C22.90421449 11.90919455 29.46608065 15.93192499 36 20 C35.67 20.66 35.34 21.32 35 22 C31.20770955 19.79273661 27.41628486 17.58399012 23.625 15.375 C22.03365234 14.44880859 22.03365234 14.44880859 20.41015625 13.50390625 C17.27058955 11.67409744 14.13520903 9.8372624 11 8 C9.52225098 7.14390137 9.52225098 7.14390137 8.01464844 6.27050781 C7.11004883 5.74038086 6.20544922 5.21025391 5.2734375 4.6640625 C4.06953369 3.96337646 4.06953369 3.96337646 2.84130859 3.24853516 C1 2 1 2 0 0 Z " fill="#4E93C7" transform="translate(170,18)"/>
<path d="M0 0 C0 0.66 0 1.32 0 2 C-0.73114014 2.40839111 -1.46228027 2.81678223 -2.21557617 3.23754883 C-4.94623108 4.76329278 -7.67649214 6.28973854 -10.40649414 7.81665039 C-12.16197189 8.79822596 -13.91789677 9.77900173 -15.67382812 10.75976562 C-16.78564453 11.38173828 -17.89746094 12.00371094 -19.04296875 12.64453125 C-20.06414795 13.21534424 -21.08532715 13.78615723 -22.13745117 14.37426758 C-25.00410212 15.95328442 -25.00410212 15.95328442 -27.62231445 17.7722168 C-30 19 -30 19 -32.3125 18.6875 C-32.869375 18.460625 -33.42625 18.23375 -34 18 C-33.20827393 17.56131592 -32.41654785 17.12263184 -31.60083008 16.6706543 C-28.6465058 15.03316404 -25.69261679 13.39489393 -22.73901367 11.75610352 C-21.46379509 11.04876202 -20.18840686 10.34172625 -18.9128418 9.63500977 C-17.07295098 8.61556226 -15.23368538 7.59499456 -13.39453125 6.57421875 C-12.28956299 5.96151123 -11.18459473 5.34880371 -10.04614258 4.7175293 C-8.08279895 3.61052261 -6.14000067 2.4658394 -4.2253418 1.27661133 C-2 0 -2 0 0 0 Z " fill="#3C84C5" transform="translate(218,71)"/>
<path d="M0 0 C3.80330056 1.0727258 7.29778919 2.52707182 10.8125 4.3125 C11.58207031 4.70050781 12.35164062 5.08851563 13.14453125 5.48828125 C15.56318272 7.45884571 15.68996024 8.96567642 16 12 C13.38029207 13.53064939 10.75498357 15.04969748 8.125 16.5625 C7.00544922 17.21895508 7.00544922 17.21895508 5.86328125 17.88867188 C5.14785156 18.29794922 4.43242187 18.70722656 3.6953125 19.12890625 C3.03547363 19.51119385 2.37563477 19.89348145 1.69580078 20.28735352 C1.13618652 20.52252686 0.57657227 20.7577002 0 21 C-0.66 20.67 -1.32 20.34 -2 20 C-0.03708697 18.76769976 1.92739131 17.53804559 3.89453125 16.3125 C5.55773119 15.27570004 7.21707468 14.23271379 8.875 13.1875 C11 12 11 12 13 12 C13 10.68 13 9.36 13 8 C11.68 8 10.36 8 9 8 C8.67 7.34 8.34 6.68 8 6 C6.5459375 5.2884375 6.5459375 5.2884375 5.0625 4.5625 C2 3 2 3 0 0 Z " fill="#54ACE9" transform="translate(221,150)"/>
<path d="M0 0 C0 0.99 0 1.98 0 3 C-0.6705542 3.36762451 -1.3411084 3.73524902 -2.03198242 4.11401367 C-5.08876531 5.79636759 -8.13811728 7.49177248 -11.1875 9.1875 C-12.24259766 9.76564453 -13.29769531 10.34378906 -14.38476562 10.93945312 C-19.58126583 13.84096901 -24.12694491 16.43992848 -28 21 C-27.44913667 17.14395669 -25.85288719 15.56601826 -23 13 C-21.22924526 11.86286134 -19.41773425 10.78763014 -17.578125 9.765625 C-16.55332031 9.19199219 -15.52851562 8.61835937 -14.47265625 8.02734375 C-13.40917969 7.44082031 -12.34570312 6.85429688 -11.25 6.25 C-10.17105469 5.64800781 -9.09210938 5.04601563 -7.98046875 4.42578125 C-5.32358072 2.94450739 -2.66340712 1.4695098 0 0 Z " fill="#3580C4" transform="translate(97,39)"/>
<path d="M0 0 C0.33 0.66 0.66 1.32 1 2 C2.997602 2.67381799 4.99815842 3.33888373 7 4 C9.42186081 5.24599075 11.77183277 6.51370541 14.125 7.875 C15.03572266 8.38353516 15.03572266 8.38353516 15.96484375 8.90234375 C19.46640392 10.90868433 22.29691624 13.00105633 25 16 C20.0001338 15.43360891 16.26362887 13.11080576 12 10.625 C11.30132812 10.22539062 10.60265625 9.82578125 9.8828125 9.4140625 C6.22943279 7.31853904 2.60286871 5.18142441 -1 3 C-0.67 2.01 -0.34 1.02 0 0 Z " fill="#1560B5" transform="translate(88,198)"/>
<path d="M0 0 C0.33 0.99 0.66 1.98 1 3 C-0.26070312 2.87431641 -0.26070312 2.87431641 -1.546875 2.74609375 C-5.85571539 3.06292025 -8.69227145 4.80500064 -12.25 7.0625 C-14.47584797 8.45365498 -16.68894761 9.74669851 -19 11 C-19.66 10.67 -20.32 10.34 -21 10 C-18.13570668 6.90710111 -15.30841196 4.79290075 -11.625 2.75 C-10.70976562 2.22921875 -9.79453125 1.7084375 -8.8515625 1.171875 C-5.68848384 -0.12802034 -3.38665208 -0.21978273 0 0 Z " fill="#0F3084" transform="translate(209,95)"/>
<path d="M0 0 C7.83655178 1.3829209 14.15828321 5.09938707 21 9 C20.67 9.66 20.34 10.32 20 11 C15.08558588 9.56347895 10.99761642 7.45840385 6.625 4.875 C5.98433594 4.50246094 5.34367187 4.12992188 4.68359375 3.74609375 C3.11951523 2.83565998 1.55934466 1.91851809 0 1 C0 0.67 0 0.34 0 0 Z " fill="#082167" transform="translate(67,189)"/>
<path d="M0 0 C-6.93 3.96 -13.86 7.92 -21 12 C-21.66 11.34 -22.32 10.68 -23 10 C-19.73831763 8.12937507 -16.46433978 6.28142424 -13.1875 4.4375 C-12.25873047 3.90447266 -11.32996094 3.37144531 -10.37304688 2.82226562 C-9.48037109 2.32275391 -8.58769531 1.82324219 -7.66796875 1.30859375 C-6.84578857 0.84251709 -6.0236084 0.37644043 -5.17651367 -0.10375977 C-3 -1 -3 -1 0 0 Z " fill="#216CBB" transform="translate(182,195)"/>
<path d="M0 0 C1.60746056 0.42523816 3.21089836 0.86570126 4.8125 1.3125 C6.15248047 1.67794922 6.15248047 1.67794922 7.51953125 2.05078125 C10.10097212 3.03863972 11.18623461 3.97533165 13 6 C14.64605826 7.03357147 16.30963442 8.04060332 18 9 C16 10 16 10 13.79296875 9.328125 C4.15254237 5.33898305 4.15254237 5.33898305 1 3 C0.67 2.01 0.34 1.02 0 0 Z " fill="#04175B" transform="translate(24,164)"/>
<path d="M0 0 C0.66 0 1.32 0 2 0 C2 0.99 2 1.98 2 3 C-0.0780065 4.17713663 -2.16151783 5.34171974 -4.25 6.5 C-5.12978516 7.00080078 -5.12978516 7.00080078 -6.02734375 7.51171875 C-9.38582107 9.36076806 -11.06645784 10 -15 10 C-15 9.34 -15 8.68 -15 8 C-14.00097656 7.50628906 -13.00195312 7.01257813 -11.97265625 6.50390625 C-10.6692186 5.85687605 -9.36583602 5.20973489 -8.0625 4.5625 C-7.40314453 4.23701172 -6.74378906 3.91152344 -6.06445312 3.57617188 C-2.81709965 2.10888654 -2.81709965 2.10888654 0 0 Z " fill="#072371" transform="translate(112,129)"/>
<path d="M0 0 C0.33 0 0.66 0 1 0 C0.96777344 0.73605469 0.93554688 1.47210938 0.90234375 2.23046875 C0.9397272 5.37483209 1.10839546 7.97703602 2 11 C4.72008209 13.42241273 7.596366 14.75543888 11 16 C11 16.33 11 16.66 11 17 C5.74568665 16.58789699 2.7645482 15.7645482 -1 12 C-1.33 11.01 -1.66 10.02 -2 9 C-1.34 9 -0.68 9 0 9 C0 6.03 0 3.06 0 0 Z " fill="#06216C" transform="translate(12,146)"/>
<path d="M0 0 C0 0.99 0 1.98 0 3 C-3.2844759 4.86712899 -6.57863871 6.71644774 -9.875 8.5625 C-10.81214844 9.09552734 -11.74929687 9.62855469 -12.71484375 10.17773438 C-13.61074219 10.67724609 -14.50664062 11.17675781 -15.4296875 11.69140625 C-16.25710449 12.15748291 -17.08452148 12.62355957 -17.93701172 13.10375977 C-18.61779785 13.39951904 -19.29858398 13.69527832 -20 14 C-20.66 13.67 -21.32 13.34 -22 13 C-14.83688255 8.3169561 -7.56812483 3.99632124 0 0 Z " fill="#59B1E8" transform="translate(204,76)"/>
<path d="M0 0 C4.62675657 1.3922459 8.64686231 3.29520984 12.875 5.625 C14.02742188 6.25664062 15.17984375 6.88828125 16.3671875 7.5390625 C17.67042969 8.26222656 17.67042969 8.26222656 19 9 C19 9.99 19 10.98 19 12 C18.00419922 11.38511719 18.00419922 11.38511719 16.98828125 10.7578125 C16.10527344 10.21898437 15.22226563 9.68015625 14.3125 9.125 C13.44238281 8.59132812 12.57226562 8.05765625 11.67578125 7.5078125 C9.0564267 5.9517479 9.0564267 5.9517479 6.3125 4.9375 C3.5210241 3.80582058 1.99743422 2.21937136 0 0 Z " fill="#2382D9" transform="translate(106,208)"/>
<path d="M0 0 C2.91687906 0.61096791 5.13415334 1.51314558 7.671875 3.06640625 C8.33574219 3.46923828 8.99960938 3.87207031 9.68359375 4.28710938 C10.36550781 4.70798828 11.04742187 5.12886719 11.75 5.5625 C12.44738281 5.98724609 13.14476562 6.41199219 13.86328125 6.84960938 C15.57835717 7.89510086 17.28956473 8.94693351 19 10 C16 11 16 11 12.64453125 9.34765625 C11.36110983 8.59622298 10.08393866 7.83403499 8.8125 7.0625 C7.83120117 6.48338867 7.83120117 6.48338867 6.83007812 5.89257812 C5.21464684 4.93746912 3.60659475 3.96989934 2 3 C2 2.34 2 1.68 2 1 C1.34 0.67 0.68 0.34 0 0 Z " fill="#3179BD" transform="translate(200,136)"/>
<path d="M0 0 C-2.2863012 1.36402043 -4.57821749 2.71634274 -6.875 4.0625 C-7.85146484 4.64741211 -7.85146484 4.64741211 -8.84765625 5.24414062 C-10.53065725 6.22444533 -12.26296199 7.11898432 -14 8 C-14.66 7.67 -15.32 7.34 -16 7 C-12.65182323 3.06096851 -5.20118162 -2.60059081 0 0 Z " fill="#041D6F" transform="translate(144,131)"/>
<path d="M0 0 C-2.62214328 1.50519387 -5.24744208 3.00431319 -7.875 4.5 C-8.62136719 4.92925781 -9.36773437 5.35851562 -10.13671875 5.80078125 C-10.85214844 6.20683594 -11.56757813 6.61289063 -12.3046875 7.03125 C-12.96452637 7.40830078 -13.62436523 7.78535156 -14.30419922 8.17382812 C-16 9 -16 9 -18 9 C-18 8.34 -18 7.68 -18 7 C-15.56876731 5.63336613 -13.13113837 4.2816133 -10.6875 2.9375 C-9.99720703 2.54755859 -9.30691406 2.15761719 -8.59570312 1.75585938 C-3.33984375 -1.11328125 -3.33984375 -1.11328125 0 0 Z " fill="#2671BD" transform="translate(200,185)"/>
<path d="M0 0 C11.21667293 3.07097259 11.21667293 3.07097259 15 6 C15.33 6.99 15.66 7.98 16 9 C10.0942118 7.44584521 5.02261107 4.40465533 0 1 C0 0.67 0 0.34 0 0 Z " fill="#031866" transform="translate(24,121)"/>
<path d="M0 0 C-1 3 -1 3 -3.72265625 4.60546875 C-4.82480469 5.12753906 -5.92695313 5.64960937 -7.0625 6.1875 C-8.16722656 6.71730469 -9.27195313 7.24710937 -10.41015625 7.79296875 C-11.26480469 8.19128906 -12.11945313 8.58960938 -13 9 C-13 8.01 -13 7.02 -13 6 C-11.02 5.67 -9.04 5.34 -7 5 C-6.67 4.01 -6.34 3.02 -6 2 C-3.85412616 0.684787 -2.52986895 0 0 0 Z " fill="#0E3287" transform="translate(229,120)"/>
<path d="M0 0 C3.40312738 1.05875074 6.01353231 2.00902154 9 4 C8.6189482 6.76262553 8.16402868 7.84143894 6.125 9.8125 C5.42375 10.204375 4.7225 10.59625 4 11 C3.01 10.67 2.02 10.34 1 10 C4.75 7 4.75 7 7 7 C6.401875 6.401875 5.80375 5.80375 5.1875 5.1875 C3.45833333 3.45833333 1.72916667 1.72916667 0 0 Z " fill="#6CC1F1" transform="translate(227,53)"/>
<path d="M0 0 C0.33 0.66 0.66 1.32 1 2 C1.9075 2.268125 2.815 2.53625 3.75 2.8125 C7.52164309 4.19060036 9.34963088 6.03782275 12 9 C7.1725201 7.58707905 3.2837641 5.57025846 -1 3 C-0.67 2.01 -0.34 1.02 0 0 Z " fill="#1657A9" transform="translate(88,198)"/>
<path d="M0 0 C5.40694067 0.43255525 8.75366122 1.58221513 13 5 C13 5.66 13 6.32 13 7 C9.70319035 6.34215037 7.15882078 5.10579427 4.25 3.4375 C3.45078125 2.98246094 2.6515625 2.52742188 1.828125 2.05859375 C1.22484375 1.70925781 0.6215625 1.35992187 0 1 C0 0.67 0 0.34 0 0 Z " fill="#08257F" transform="translate(104,99)"/>
<path d="M0 0 C0.99 0.33 1.98 0.66 3 1 C1.09273249 2.20253816 -0.8262012 3.38658949 -2.75 4.5625 C-3.81734375 5.22378906 -4.8846875 5.88507813 -5.984375 6.56640625 C-9 8 -9 8 -11.390625 7.71484375 C-11.92171875 7.47894531 -12.4528125 7.24304688 -13 7 C-11.20856793 6.0204042 -9.41684696 5.0413367 -7.625 4.0625 C-6.62726563 3.51722656 -5.62953125 2.97195312 -4.6015625 2.41015625 C-3.07929654 1.5850241 -1.54871217 0.77435609 0 0 Z " fill="#317AC3" transform="translate(183,90)"/>
<path d="M0 0 C0.99 0.33 1.98 0.66 3 1 C1.55373881 4.81287042 -0.30194812 6.32707177 -4 8 C-6.3125 7.6875 -6.3125 7.6875 -8 7 C-6.20963542 6.05598958 -4.41927083 5.11197917 -2.62890625 4.16796875 C-0.67732013 3.00980201 -0.67732013 3.00980201 0 0 Z " fill="#072477" transform="translate(134,115)"/>
<path d="M0 0 C-1.6188996 1.03048037 -3.24532489 2.04914678 -4.875 3.0625 C-5.77992188 3.63097656 -6.68484375 4.19945313 -7.6171875 4.78515625 C-8.40351563 5.18605469 -9.18984375 5.58695312 -10 6 C-10.66 5.67 -11.32 5.34 -12 5 C-8.0954726 0.81657778 -5.72342293 -1.65740789 0 0 Z " fill="#0A2A80" transform="translate(182,110)"/>
<path d="M0 0 C0.66 0.33 1.32 0.66 2 1 C0.25447936 2.15264553 -1.49660196 3.29687327 -3.25 4.4375 C-4.22453125 5.07558594 -5.1990625 5.71367188 -6.203125 6.37109375 C-8.58381615 7.7576136 -10.31780307 8.546581 -13 9 C-9.49391962 4.88416651 -4.95371163 2.09432982 0 0 Z " fill="#023FA4" transform="translate(202,98)"/>
<path d="M0 0 C-0.556875 0.268125 -1.11375 0.53625 -1.6875 0.8125 C-4.09821537 2.00329541 -4.09821537 2.00329541 -6.625 3.6875 C-7.40875 4.120625 -8.1925 4.55375 -9 5 C-9.66 4.67 -10.32 4.34 -11 4 C-6.99509003 -0.13840697 -5.70470474 -1.35111428 0 0 Z " fill="#071B65" transform="translate(51,68)"/>
<path d="M0 0 C6.52307692 0.61538462 6.52307692 0.61538462 8.9375 2.5625 C9.288125 3.036875 9.63875 3.51125 10 4 C6.06329512 5.31223496 3.87511856 4.24296256 0 3 C0 2.01 0 1.02 0 0 Z " fill="#0E3284" transform="translate(47,67)"/>
<path d="M0 0 C0.66 0.66 1.32 1.32 2 2 C-3.078125 5.22265625 -3.078125 5.22265625 -5 6 C-6.32 5.67 -7.64 5.34 -9 5 C-6.03 3.35 -3.06 1.7 0 0 Z " fill="#2F97E5" transform="translate(119,181)"/>
<path d="M0 0 C0.66 0.33 1.32 0.66 2 1 C0.02579865 3.52259061 -0.96745642 3.9929808 -4.1875 4.6875 C-5.5796875 4.8421875 -5.5796875 4.8421875 -7 5 C-7 4.34 -7 3.68 -7 3 C-4.69631264 1.93347808 -2.35981813 0.93578995 0 0 Z " fill="#031965" transform="translate(104,134)"/>
<path d="M0 0 C-1 3 -1 3 -2.8125 4.25 C-5.33943414 5.11637742 -6.52221994 4.88492145 -9 4 C-2.25 0 -2.25 0 0 0 Z " fill="#052273" transform="translate(124,124)"/>
<path d="M0 0 C0.928125 0.515625 1.85625 1.03125 2.8125 1.5625 C2.4825 2.2225 2.1525 2.8825 1.8125 3.5625 C-3.9375 1.8125 -3.9375 1.8125 -6.1875 -0.4375 C-3.1875 -1.4375 -3.1875 -1.4375 0 0 Z " fill="#0B2A76" transform="translate(85.1875,196.4375)"/>
<path d="M0 0 C3.77545388 1.09068668 6.47043472 1.9083091 9 5 C5.625 4.75 5.625 4.75 2 4 C0.5625 1.9375 0.5625 1.9375 0 0 Z " fill="#041358" transform="translate(14,158)"/>
<path d="M0 0 C3.41021743 0.78697325 6.68885166 1.87119943 10 3 C6.61981469 4.04005702 3.5219721 4.08004482 0 4 C0 2.66666667 0 1.33333333 0 0 Z " fill="#062F83" transform="translate(84,153)"/>
<path d="M0 0 C3.77545388 1.09068668 6.47043472 1.9083091 9 5 C6.75 5.25 6.75 5.25 4 5 C1.6875 3.0625 1.6875 3.0625 0 1 C0 0.67 0 0.34 0 0 Z " fill="#052877" transform="translate(57,138)"/>
<path d="M0 0 C3.48330216 0.64505596 6.09432866 1.98217268 9 4 C9 4.66 9 5.32 9 6 C4.25 4.125 4.25 4.125 2 3 C2 2.34 2 1.68 2 1 C1.34 0.67 0.68 0.34 0 0 Z " fill="#2A6EBB" transform="translate(200,136)"/>
<path d="M0 0 C0.99 0.33 1.98 0.66 3 1 C3 2.98 3 4.96 3 7 C2.01 7.495 2.01 7.495 1 8 C0.34 7.34 -0.32 6.68 -1 6 C-0.625 3.4375 -0.625 3.4375 0 1 C0 0.67 0 0.34 0 0 Z " fill="#05196E" transform="translate(234,111)"/>
<path d="M0 0 C-2.13464912 2.45484649 -3.70720291 3.68134222 -7 4 C-7.66 3.34 -8.32 2.68 -9 2 C-5.86501708 0.14223235 -3.62528568 -0.20140476 0 0 Z " fill="#2586DA" transform="translate(106,191)"/>
<path d="M0 0 C2.25 0.25 2.25 0.25 4 1 C2.02 2.32 0.04 3.64 -2 5 C-2.66 4.67 -3.32 4.34 -4 4 C-2.25 1.9375 -2.25 1.9375 0 0 Z " fill="#0A257B" transform="translate(192,101)"/>
<path d="M0 0 C0.99 0 1.98 0 3 0 C3 0.66 3 1.32 3 2 C1.68 2.33 0.36 2.66 -1 3 C-0.67 2.01 -0.34 1.02 0 0 Z " fill="#104397" transform="translate(116,139)"/>
<path d="M0 0 C1.32 0.33 2.64 0.66 4 1 C3.01 1.495 3.01 1.495 2 2 C1.34 1.34 0.68 0.68 0 0 Z " fill="#66A1C6" transform="translate(214,41)"/>
<path d="M0 0 C0.66 0 1.32 0 2 0 C2 0.66 2 1.32 2 2 C1.34 2 0.68 2 0 2 C0 1.34 0 0.68 0 0 Z " fill="#3B7FBE" transform="translate(161,209)"/>
<path d="M0 0 C0.66 0 1.32 0 2 0 C2 0.66 2 1.32 2 2 C1.34 2 0.68 2 0 2 C0 1.34 0 0.68 0 0 Z " fill="#2C6AAC" transform="translate(92,209)"/>
<path d="M0 0 C0.66 0 1.32 0 2 0 C2 0.66 2 1.32 2 2 C1.34 2 0.68 2 0 2 C0 1.34 0 0.68 0 0 Z " fill="#2E6AAC" transform="translate(90,205)"/>
<path d="M0 0 C0 3 0 3 0 3 Z " fill="#124599" transform="translate(117,133)"/>
<path d="M0 0 C0.66 0 1.32 0 2 0 C2 0.66 2 1.32 2 2 C1.34 2 0.68 2 0 2 C0 1.34 0 0.68 0 0 Z " fill="#3164A8" transform="translate(235,105)"/>
<path d="M0 0 C0 3 0 3 0 3 Z " fill="#3477BD" transform="translate(186,97)"/>
<path d="M0 0 C0.66 0 1.32 0 2 0 C2 0.66 2 1.32 2 2 C1.34 2 0.68 2 0 2 C0 1.34 0 0.68 0 0 Z " fill="#3A77BF" transform="translate(90,76)"/>
<path d="M0 0 C0.66 0 1.32 0 2 0 C2 0.66 2 1.32 2 2 C1.34 2 0.68 2 0 2 C0 1.34 0 0.68 0 0 Z " fill="#6399C1" transform="translate(231,49)"/>
<path d="M0 0 C0.66 0 1.32 0 2 0 C2 0.66 2 1.32 2 2 C1.34 2 0.68 2 0 2 C0 1.34 0 0.68 0 0 Z " fill="#6297BA" transform="translate(168,9)"/>
<path d="M0 0 C0.99 0.495 0.99 0.495 2 1 C1.01 1.495 1.01 1.495 0 2 C0 1.34 0 0.68 0 0 Z " fill="#3376B7" transform="translate(136,222)"/>
<path d="M0 0 C0.33 0.66 0.66 1.32 1 2 C0.34 1.67 -0.32 1.34 -1 1 C-0.67 0.67 -0.34 0.34 0 0 Z " fill="#3F82BD" transform="translate(168,204)"/>
<path d="M0 0 C0.66 0 1.32 0 2 0 C1.67 0.66 1.34 1.32 1 2 C0.67 1.34 0.34 0.68 0 0 Z " fill="#5089B8" transform="translate(235,153)"/>
<path d="M0 0 C0.66 0 1.32 0 2 0 C1.67 0.66 1.34 1.32 1 2 C0.67 1.34 0.34 0.68 0 0 Z " fill="#1E63B2" transform="translate(136,113)"/>
<path d="M0 0 C0.66 0.66 1.32 1.32 2 2 C1.34 2 0.68 2 0 2 C0 1.34 0 0.68 0 0 Z " fill="#3978C1" transform="translate(93,77)"/>
<path d="M0 0 C0.66 0.66 1.32 1.32 2 2 C1.34 2 0.68 2 0 2 C0 1.34 0 0.68 0 0 Z " fill="#3975B7" transform="translate(65,61)"/>
<path d="M0 0 C0.33 0.66 0.66 1.32 1 2 C0.34 1.67 -0.32 1.34 -1 1 C-0.67 0.67 -0.34 0.34 0 0 Z " fill="#25518F" transform="translate(21,61)"/>
<path d="M0 0 C0.99 0.495 0.99 0.495 2 1 C1.01 1.495 1.01 1.495 0 2 C0 1.34 0 0.68 0 0 Z " fill="#4481BA" transform="translate(67,53)"/>
<path d="M0 0 C0.66 0 1.32 0 2 0 C1.67 0.66 1.34 1.32 1 2 C0.67 1.34 0.34 0.68 0 0 Z " fill="#4885BD" transform="translate(70,51)"/>
<path d="M0 0 C0.99 0.495 0.99 0.495 2 1 C1.01 1.495 1.01 1.495 0 2 C0 1.34 0 0.68 0 0 Z " fill="#5898C7" transform="translate(114,26)"/>
<path d="M0 0 C2 1 2 1 2 1 Z " fill="#3A6892" transform="translate(163,238)"/>
<path d="M0 0 C2 1 2 1 2 1 Z " fill="#2E5A8A" transform="translate(70,222)"/>
<path d="M0 0 C2 1 2 1 2 1 Z " fill="#3477BC" transform="translate(109,215)"/>
<path d="" fill="#244777" transform="translate(0,0)"/>
<path d="M0 0 C2 1 2 1 2 1 Z " fill="#2158A0" transform="translate(86,202)"/>
<path d="" fill="#23467A" transform="translate(0,0)"/>
<path d="" fill="#1E437C" transform="translate(0,0)"/>
<path d="" fill="#143F88" transform="translate(0,0)"/>
<path d="" fill="#164081" transform="translate(0,0)"/>
<path d="" fill="#0E3B86" transform="translate(0,0)"/>
<path d="M0 0 C2 1 2 1 2 1 Z " fill="#083F91" transform="translate(75,145)"/>
<path d="" fill="#114597" transform="translate(0,0)"/>
<path d="M0 0 C2 1 2 1 2 1 Z " fill="#104394" transform="translate(69,142)"/>
<path d="" fill="#417EB8" transform="translate(0,0)"/>
<path d="" fill="#3570B6" transform="translate(0,0)"/>
<path d="M0 0 C2 1 2 1 2 1 Z " fill="#1B54A4" transform="translate(143,124)"/>
<path d="" fill="#0B3D8E" transform="translate(0,0)"/>
<path d="M0 0 C2 1 2 1 2 1 Z " fill="#2061B4" transform="translate(166,113)"/>
<path d="" fill="#103E8B" transform="translate(0,0)"/>
<path d="" fill="#2A69B5" transform="translate(0,0)"/>
<path d="" fill="#5293C9" transform="translate(0,0)"/>
<path d="M0 0 C2 1 2 1 2 1 Z " fill="#387AC0" transform="translate(88,75)"/>
<path d="M0 0 C2 1 2 1 2 1 Z " fill="#2561B1" transform="translate(70,73)"/>
<path d="M0 0 C2 1 2 1 2 1 Z " fill="#3672B5" transform="translate(70,68)"/>
<path d="M0 0 C2 1 2 1 2 1 Z " fill="#2660A8" transform="translate(48,65)"/>
<path d="" fill="#659AB9" transform="translate(0,0)"/>
<path d="" fill="#5C96C1" transform="translate(0,0)"/>
<path d="M0 0 C2 1 2 1 2 1 Z " fill="#649DC3" transform="translate(165,12)"/>
<path d="M0 0 C2 1 2 1 2 1 Z " fill="#689DC3" transform="translate(163,11)"/>
<path d="" fill="#5A8CAE" transform="translate(0,0)"/>
<path d="M0 0 C2 1 2 1 2 1 Z " fill="#649CBF" transform="translate(144,9)"/>
<path d="M0 0 C2 1 2 1 2 1 Z " fill="#6392B1" transform="translate(163,3)"/>
<path d="" fill="#386790" transform="translate(0,0)"/>
<path d="" fill="#3576B6" transform="translate(0,0)"/>
<path d="" fill="#3D75A3" transform="translate(0,0)"/>
<path d="" fill="#3777B5" transform="translate(0,0)"/>
<path d="" fill="#478DC4" transform="translate(0,0)"/>
<path d="" fill="#143D8A" transform="translate(0,0)"/>
<path d="" fill="#133B86" transform="translate(0,0)"/>
<path d="" fill="#4D8DC2" transform="translate(0,0)"/>
<path d="" fill="#103D8B" transform="translate(0,0)"/>
<path d="" fill="#14408D" transform="translate(0,0)"/>
<path d="" fill="#0F3E90" transform="translate(0,0)"/>
<path d="" fill="#4985C4" transform="translate(0,0)"/>
<path d="" fill="#4584C1" transform="translate(0,0)"/>
<path d="" fill="#3875BA" transform="translate(0,0)"/>
<path d="" fill="#4986C1" transform="translate(0,0)"/>
<path d="" fill="#0F4398" transform="translate(0,0)"/>
<path d="" fill="#0C3E93" transform="translate(0,0)"/>
<path d="" fill="#113E90" transform="translate(0,0)"/>
<path d="" fill="#0D3C8E" transform="translate(0,0)"/>
<path d="" fill="#0F3F90" transform="translate(0,0)"/>
<path d="" fill="#0C3B8A" transform="translate(0,0)"/>
<path d="" fill="#0C4195" transform="translate(0,0)"/>
<path d="" fill="#0D3A90" transform="translate(0,0)"/>
<path d="" fill="#397EC2" transform="translate(0,0)"/>
<path d="" fill="#114191" transform="translate(0,0)"/>
<path d="" fill="#2B68B2" transform="translate(0,0)"/>
<path d="" fill="#3470BD" transform="translate(0,0)"/>
<path d="" fill="#3371BC" transform="translate(0,0)"/>
<path d="" fill="#2661B2" transform="translate(0,0)"/>
<path d="" fill="#3C7CC8" transform="translate(0,0)"/>
<path d="" fill="#3877C0" transform="translate(0,0)"/>
<path d="" fill="#2767B0" transform="translate(0,0)"/>
<path d="" fill="#2460AE" transform="translate(0,0)"/>
<path d="" fill="#3E80C0" transform="translate(0,0)"/>
<path d="" fill="#205CAD" transform="translate(0,0)"/>
<path d="" fill="#5196CD" transform="translate(0,0)"/>
<path d="" fill="#5393C7" transform="translate(0,0)"/>
<path d="" fill="#5191C9" transform="translate(0,0)"/>
<path d="" fill="#1B4994" transform="translate(0,0)"/>
<path d="" fill="#5A99CA" transform="translate(0,0)"/>
<path d="" fill="#5B95C7" transform="translate(0,0)"/>
<path d="" fill="#2766AD" transform="translate(0,0)"/>
<path d="" fill="#214E91" transform="translate(0,0)"/>
<path d="" fill="#2154A0" transform="translate(0,0)"/>
<path d="" fill="#66A5C9" transform="translate(0,0)"/>
<path d="" fill="#73ACCD" transform="translate(0,0)"/>
<path d="" fill="#619BC8" transform="translate(0,0)"/>
<path d="" fill="#679DC2" transform="translate(0,0)"/>
</svg>
